<mxfile host="app.diagrams.net" modified="2023-08-13T19:26:59.436Z" agent="Mozilla/5.0 (Windows NT 10.0; Win64; x64) AppleWebKit/537.36 (KHTML, like Gecko) Chrome/115.0.0.0 Safari/537.36" etag="xYx8fD1kPD8eC_NsTU9o" version="21.6.8" type="device">
  <diagram name="Sayfa -1" id="v8WUDRfbUDS-UY6HdSMZ">
    <mxGraphModel dx="2074" dy="1118" grid="1" gridSize="10" guides="1" tooltips="1" connect="1" arrows="1" fold="1" page="1" pageScale="1" pageWidth="827" pageHeight="1169" math="0" shadow="0">
      <root>
        <mxCell id="0" />
        <mxCell id="1" parent="0" />
        <mxCell id="Ukw557SQEI1ZL_Sgn4xw-81" value="" style="group" vertex="1" connectable="0" parent="1">
          <mxGeometry width="820" height="900" as="geometry" />
        </mxCell>
        <mxCell id="Ukw557SQEI1ZL_Sgn4xw-1" value="&lt;b&gt;Button&lt;/b&gt;" style="swimlane;fontStyle=0;align=center;verticalAlign=top;childLayout=stackLayout;horizontal=1;startSize=40;horizontalStack=0;resizeParent=1;resizeParentMax=0;resizeLast=0;collapsible=0;marginBottom=0;html=1;whiteSpace=wrap;fillColor=#dae8fc;strokeColor=#6c8ebf;" vertex="1" parent="Ukw557SQEI1ZL_Sgn4xw-81">
          <mxGeometry x="249.50977077557647" y="313.0434782608696" width="166.33984718371764" height="69.34782608695653" as="geometry" />
        </mxCell>
        <mxCell id="Ukw557SQEI1ZL_Sgn4xw-2" value="__construct(text, attributes)" style="text;html=1;strokeColor=none;fillColor=none;align=left;verticalAlign=middle;spacingLeft=4;spacingRight=4;overflow=hidden;rotatable=0;points=[[0,0.5],[1,0.5]];portConstraint=eastwest;whiteSpace=wrap;" vertex="1" parent="Ukw557SQEI1ZL_Sgn4xw-1">
          <mxGeometry y="40" width="166.33984718371764" height="29.347826086956523" as="geometry" />
        </mxCell>
        <mxCell id="Ukw557SQEI1ZL_Sgn4xw-3" value="&lt;b&gt;Input&lt;/b&gt;" style="swimlane;fontStyle=0;align=center;verticalAlign=top;childLayout=stackLayout;horizontal=1;startSize=40;horizontalStack=0;resizeParent=1;resizeParentMax=0;resizeLast=0;collapsible=0;marginBottom=0;html=1;whiteSpace=wrap;fillColor=#dae8fc;strokeColor=#6c8ebf;" vertex="1" parent="Ukw557SQEI1ZL_Sgn4xw-81">
          <mxGeometry x="434.3318232019294" y="313.0434782608696" width="166.33984718371764" height="69.34782608695653" as="geometry" />
        </mxCell>
        <mxCell id="Ukw557SQEI1ZL_Sgn4xw-4" value="__construct(name, attributes)" style="text;html=1;strokeColor=none;fillColor=none;align=left;verticalAlign=middle;spacingLeft=4;spacingRight=4;overflow=hidden;rotatable=0;points=[[0,0.5],[1,0.5]];portConstraint=eastwest;whiteSpace=wrap;" vertex="1" parent="Ukw557SQEI1ZL_Sgn4xw-3">
          <mxGeometry y="40" width="166.33984718371764" height="29.347826086956523" as="geometry" />
        </mxCell>
        <mxCell id="Ukw557SQEI1ZL_Sgn4xw-5" value="&lt;b&gt;Textarea&lt;br&gt;&lt;br&gt;&lt;/b&gt;" style="swimlane;fontStyle=0;align=center;verticalAlign=top;childLayout=stackLayout;horizontal=1;startSize=40;horizontalStack=0;resizeParent=1;resizeParentMax=0;resizeLast=0;collapsible=0;marginBottom=0;html=1;whiteSpace=wrap;fillColor=#dae8fc;strokeColor=#6c8ebf;" vertex="1" parent="Ukw557SQEI1ZL_Sgn4xw-81">
          <mxGeometry x="619.1538756282824" y="313.0434782608696" width="184.82205242635294" height="69.34782608695653" as="geometry" />
        </mxCell>
        <mxCell id="Ukw557SQEI1ZL_Sgn4xw-6" value="__construct(name, attributes, text)" style="text;html=1;strokeColor=none;fillColor=none;align=left;verticalAlign=middle;spacingLeft=4;spacingRight=4;overflow=hidden;rotatable=0;points=[[0,0.5],[1,0.5]];portConstraint=eastwest;whiteSpace=wrap;" vertex="1" parent="Ukw557SQEI1ZL_Sgn4xw-5">
          <mxGeometry y="40" width="184.82205242635294" height="29.347826086956523" as="geometry" />
        </mxCell>
        <mxCell id="Ukw557SQEI1ZL_Sgn4xw-32" style="edgeStyle=orthogonalEdgeStyle;rounded=0;orthogonalLoop=1;jettySize=auto;html=1;entryX=0.5;entryY=0;entryDx=0;entryDy=0;" edge="1" parent="Ukw557SQEI1ZL_Sgn4xw-81" source="Ukw557SQEI1ZL_Sgn4xw-9" target="Ukw557SQEI1ZL_Sgn4xw-3">
          <mxGeometry relative="1" as="geometry" />
        </mxCell>
        <mxCell id="Ukw557SQEI1ZL_Sgn4xw-33" style="edgeStyle=orthogonalEdgeStyle;rounded=0;orthogonalLoop=1;jettySize=auto;html=1;entryX=0.5;entryY=0;entryDx=0;entryDy=0;" edge="1" parent="Ukw557SQEI1ZL_Sgn4xw-81" source="Ukw557SQEI1ZL_Sgn4xw-9" target="Ukw557SQEI1ZL_Sgn4xw-1">
          <mxGeometry relative="1" as="geometry" />
        </mxCell>
        <mxCell id="Ukw557SQEI1ZL_Sgn4xw-34" style="edgeStyle=orthogonalEdgeStyle;rounded=0;orthogonalLoop=1;jettySize=auto;html=1;entryX=0.5;entryY=0;entryDx=0;entryDy=0;" edge="1" parent="Ukw557SQEI1ZL_Sgn4xw-81" source="Ukw557SQEI1ZL_Sgn4xw-9" target="Ukw557SQEI1ZL_Sgn4xw-5">
          <mxGeometry relative="1" as="geometry" />
        </mxCell>
        <mxCell id="Ukw557SQEI1ZL_Sgn4xw-9" value="Element" style="swimlane;fontStyle=0;align=center;verticalAlign=top;childLayout=stackLayout;horizontal=1;startSize=55;horizontalStack=0;resizeParent=1;resizeParentMax=0;resizeLast=0;collapsible=0;marginBottom=0;html=1;whiteSpace=wrap;fillColor=#f8cecc;strokeColor=#b85450;" vertex="1" parent="Ukw557SQEI1ZL_Sgn4xw-81">
          <mxGeometry x="443.57292582324703" width="147.85764194108233" height="238.91304347826085" as="geometry" />
        </mxCell>
        <mxCell id="Ukw557SQEI1ZL_Sgn4xw-10" value="attributes" style="text;html=1;strokeColor=none;fillColor=none;align=center;verticalAlign=middle;spacingLeft=4;spacingRight=4;overflow=hidden;rotatable=0;points=[[0,0.5],[1,0.5]];portConstraint=eastwest;whiteSpace=wrap;" vertex="1" parent="Ukw557SQEI1ZL_Sgn4xw-9">
          <mxGeometry y="55" width="147.85764194108233" height="19.56521739130435" as="geometry" />
        </mxCell>
        <mxCell id="Ukw557SQEI1ZL_Sgn4xw-11" value="tagName" style="text;html=1;strokeColor=none;fillColor=none;align=left;verticalAlign=middle;spacingLeft=4;spacingRight=4;overflow=hidden;rotatable=0;points=[[0,0.5],[1,0.5]];portConstraint=eastwest;whiteSpace=wrap;" vertex="1" parent="Ukw557SQEI1ZL_Sgn4xw-9">
          <mxGeometry y="74.56521739130434" width="147.85764194108233" height="19.56521739130435" as="geometry" />
        </mxCell>
        <mxCell id="Ukw557SQEI1ZL_Sgn4xw-27" value="name" style="text;html=1;strokeColor=none;fillColor=none;align=left;verticalAlign=middle;spacingLeft=4;spacingRight=4;overflow=hidden;rotatable=0;points=[[0,0.5],[1,0.5]];portConstraint=eastwest;whiteSpace=wrap;" vertex="1" parent="Ukw557SQEI1ZL_Sgn4xw-9">
          <mxGeometry y="94.13043478260869" width="147.85764194108233" height="19.56521739130435" as="geometry" />
        </mxCell>
        <mxCell id="Ukw557SQEI1ZL_Sgn4xw-28" value="attributes" style="text;html=1;strokeColor=none;fillColor=none;align=left;verticalAlign=middle;spacingLeft=4;spacingRight=4;overflow=hidden;rotatable=0;points=[[0,0.5],[1,0.5]];portConstraint=eastwest;whiteSpace=wrap;" vertex="1" parent="Ukw557SQEI1ZL_Sgn4xw-9">
          <mxGeometry y="113.69565217391303" width="147.85764194108233" height="19.56521739130435" as="geometry" />
        </mxCell>
        <mxCell id="Ukw557SQEI1ZL_Sgn4xw-29" value="isTagClosure" style="text;html=1;strokeColor=none;fillColor=none;align=left;verticalAlign=middle;spacingLeft=4;spacingRight=4;overflow=hidden;rotatable=0;points=[[0,0.5],[1,0.5]];portConstraint=eastwest;whiteSpace=wrap;" vertex="1" parent="Ukw557SQEI1ZL_Sgn4xw-9">
          <mxGeometry y="133.26086956521738" width="147.85764194108233" height="19.56521739130435" as="geometry" />
        </mxCell>
        <mxCell id="Ukw557SQEI1ZL_Sgn4xw-30" value="text" style="text;html=1;strokeColor=none;fillColor=none;align=left;verticalAlign=middle;spacingLeft=4;spacingRight=4;overflow=hidden;rotatable=0;points=[[0,0.5],[1,0.5]];portConstraint=eastwest;whiteSpace=wrap;" vertex="1" parent="Ukw557SQEI1ZL_Sgn4xw-9">
          <mxGeometry y="152.82608695652172" width="147.85764194108233" height="19.56521739130435" as="geometry" />
        </mxCell>
        <mxCell id="Ukw557SQEI1ZL_Sgn4xw-31" value="isBootstrap" style="text;html=1;strokeColor=none;fillColor=none;align=left;verticalAlign=middle;spacingLeft=4;spacingRight=4;overflow=hidden;rotatable=0;points=[[0,0.5],[1,0.5]];portConstraint=eastwest;whiteSpace=wrap;" vertex="1" parent="Ukw557SQEI1ZL_Sgn4xw-9">
          <mxGeometry y="172.39130434782606" width="147.85764194108233" height="19.56521739130435" as="geometry" />
        </mxCell>
        <mxCell id="Ukw557SQEI1ZL_Sgn4xw-14" value="" style="line;strokeWidth=1;fillColor=none;align=left;verticalAlign=middle;spacingTop=-1;spacingLeft=3;spacingRight=3;rotatable=0;labelPosition=right;points=[];portConstraint=eastwest;" vertex="1" parent="Ukw557SQEI1ZL_Sgn4xw-9">
          <mxGeometry y="191.9565217391304" width="147.85764194108233" height="7.826086956521739" as="geometry" />
        </mxCell>
        <mxCell id="Ukw557SQEI1ZL_Sgn4xw-15" value="operations" style="text;html=1;strokeColor=none;fillColor=none;align=center;verticalAlign=middle;spacingLeft=4;spacingRight=4;overflow=hidden;rotatable=0;points=[[0,0.5],[1,0.5]];portConstraint=eastwest;whiteSpace=wrap;" vertex="1" parent="Ukw557SQEI1ZL_Sgn4xw-9">
          <mxGeometry y="199.78260869565216" width="147.85764194108233" height="19.56521739130435" as="geometry" />
        </mxCell>
        <mxCell id="Ukw557SQEI1ZL_Sgn4xw-16" value="generateHTMLAndFetch" style="text;html=1;strokeColor=none;fillColor=none;align=left;verticalAlign=middle;spacingLeft=4;spacingRight=4;overflow=hidden;rotatable=0;points=[[0,0.5],[1,0.5]];portConstraint=eastwest;whiteSpace=wrap;" vertex="1" parent="Ukw557SQEI1ZL_Sgn4xw-9">
          <mxGeometry y="219.3478260869565" width="147.85764194108233" height="19.56521739130435" as="geometry" />
        </mxCell>
        <mxCell id="Ukw557SQEI1ZL_Sgn4xw-47" value="Form" style="swimlane;fontStyle=0;align=center;verticalAlign=top;childLayout=stackLayout;horizontal=1;startSize=55;horizontalStack=0;resizeParent=1;resizeParentMax=0;resizeLast=0;collapsible=0;marginBottom=0;html=1;whiteSpace=wrap;fillColor=#fff2cc;strokeColor=#d6b656;" vertex="1" parent="Ukw557SQEI1ZL_Sgn4xw-81">
          <mxGeometry y="484.2391304347827" width="147.85764194108233" height="180.2173913043478" as="geometry" />
        </mxCell>
        <mxCell id="Ukw557SQEI1ZL_Sgn4xw-48" value="attributes" style="text;html=1;strokeColor=none;fillColor=none;align=center;verticalAlign=middle;spacingLeft=4;spacingRight=4;overflow=hidden;rotatable=0;points=[[0,0.5],[1,0.5]];portConstraint=eastwest;whiteSpace=wrap;" vertex="1" parent="Ukw557SQEI1ZL_Sgn4xw-47">
          <mxGeometry y="55" width="147.85764194108233" height="19.56521739130435" as="geometry" />
        </mxCell>
        <mxCell id="Ukw557SQEI1ZL_Sgn4xw-49" value="formName" style="text;html=1;strokeColor=none;fillColor=none;align=left;verticalAlign=middle;spacingLeft=4;spacingRight=4;overflow=hidden;rotatable=0;points=[[0,0.5],[1,0.5]];portConstraint=eastwest;whiteSpace=wrap;" vertex="1" parent="Ukw557SQEI1ZL_Sgn4xw-47">
          <mxGeometry y="74.56521739130434" width="147.85764194108233" height="19.56521739130435" as="geometry" />
        </mxCell>
        <mxCell id="Ukw557SQEI1ZL_Sgn4xw-53" value="elements" style="text;html=1;strokeColor=none;fillColor=none;align=left;verticalAlign=middle;spacingLeft=4;spacingRight=4;overflow=hidden;rotatable=0;points=[[0,0.5],[1,0.5]];portConstraint=eastwest;whiteSpace=wrap;" vertex="1" parent="Ukw557SQEI1ZL_Sgn4xw-47">
          <mxGeometry y="94.13043478260869" width="147.85764194108233" height="19.56521739130435" as="geometry" />
        </mxCell>
        <mxCell id="Ukw557SQEI1ZL_Sgn4xw-55" value="" style="line;strokeWidth=1;fillColor=none;align=left;verticalAlign=middle;spacingTop=-1;spacingLeft=3;spacingRight=3;rotatable=0;labelPosition=right;points=[];portConstraint=eastwest;" vertex="1" parent="Ukw557SQEI1ZL_Sgn4xw-47">
          <mxGeometry y="113.69565217391303" width="147.85764194108233" height="7.826086956521739" as="geometry" />
        </mxCell>
        <mxCell id="Ukw557SQEI1ZL_Sgn4xw-56" value="operations" style="text;html=1;strokeColor=none;fillColor=none;align=center;verticalAlign=middle;spacingLeft=4;spacingRight=4;overflow=hidden;rotatable=0;points=[[0,0.5],[1,0.5]];portConstraint=eastwest;whiteSpace=wrap;" vertex="1" parent="Ukw557SQEI1ZL_Sgn4xw-47">
          <mxGeometry y="121.52173913043477" width="147.85764194108233" height="19.56521739130435" as="geometry" />
        </mxCell>
        <mxCell id="Ukw557SQEI1ZL_Sgn4xw-57" value="addElement" style="text;html=1;strokeColor=none;fillColor=none;align=left;verticalAlign=middle;spacingLeft=4;spacingRight=4;overflow=hidden;rotatable=0;points=[[0,0.5],[1,0.5]];portConstraint=eastwest;whiteSpace=wrap;" vertex="1" parent="Ukw557SQEI1ZL_Sgn4xw-47">
          <mxGeometry y="141.08695652173913" width="147.85764194108233" height="19.56521739130435" as="geometry" />
        </mxCell>
        <mxCell id="Ukw557SQEI1ZL_Sgn4xw-58" value="getHtml" style="text;html=1;strokeColor=none;fillColor=none;align=left;verticalAlign=middle;spacingLeft=4;spacingRight=4;overflow=hidden;rotatable=0;points=[[0,0.5],[1,0.5]];portConstraint=eastwest;whiteSpace=wrap;" vertex="1" parent="Ukw557SQEI1ZL_Sgn4xw-47">
          <mxGeometry y="160.65217391304347" width="147.85764194108233" height="19.56521739130435" as="geometry" />
        </mxCell>
        <mxCell id="Ukw557SQEI1ZL_Sgn4xw-42" style="edgeStyle=orthogonalEdgeStyle;rounded=0;orthogonalLoop=1;jettySize=auto;html=1;entryX=0.5;entryY=0;entryDx=0;entryDy=0;exitX=-0.006;exitY=0.111;exitDx=0;exitDy=0;exitPerimeter=0;" edge="1" parent="Ukw557SQEI1ZL_Sgn4xw-81" source="Ukw557SQEI1ZL_Sgn4xw-9" target="Ukw557SQEI1ZL_Sgn4xw-47">
          <mxGeometry relative="1" as="geometry">
            <mxPoint x="55.44661572790588" y="542.9347826086957" as="targetPoint" />
          </mxGeometry>
        </mxCell>
        <mxCell id="Ukw557SQEI1ZL_Sgn4xw-59" value="generateHTMLAndFetch()" style="edgeLabel;html=1;align=center;verticalAlign=middle;resizable=0;points=[];" vertex="1" connectable="0" parent="Ukw557SQEI1ZL_Sgn4xw-42">
          <mxGeometry x="0.4349" y="-2" relative="1" as="geometry">
            <mxPoint as="offset" />
          </mxGeometry>
        </mxCell>
        <mxCell id="Ukw557SQEI1ZL_Sgn4xw-60" value="" style="shape=image;imageAspect=0;aspect=fixed;verticalLabelPosition=bottom;verticalAlign=top;image=data:image/png,iVBORw0KGgoAAAANSUhEUgAAA7QAAAD9CAYAAACMeDuXAAAAAXNSR0IArs4c6QAAAARnQU1BAACxjwv8YQUAAAAJcEhZcwAADsMAAA7DAcdvqGQAAHnCSURBVHhe7f1NbxW5+vYNP59lPetSq7n6T7T2FSm5EAo73UhEEU+IeAmNkHInGRHSmXTUBEXqB0bZ6nkQMGMIWxn1gD1hmp70/gx8Fd8+7HLVWV62y7Wy3iocg59glU+/lu3lY5228//53//7fyuf/+//+l+EEEIIIYQQQshcQ0FLCCGEEEIIIaSTUNASQgghhBBCCOkkFLSEEEIIIYQQQjoJBS0hhBBCCCGEkE5CQUsIIYQQQgghpJNQ0BJCCCGEEEII6SQUtIQQQgghhBBCOkmWoF2+90ad3lsZev6ts7v/ie1CSITnHy7U2a+3g2Hzzs1fz9XHP3aCYeTbpMv9mRAyG/g9eLXh98L8kBS0vf6K2n36Rr178e+St/sHtQQky/deq9PfPgnb1+ruYj9oexVICdpe/6E6Em3RRvgi3bZxyHzS6++oV58v1Kf//GW4zMSHLxek8fHDSTB83ujyRG/f27l6vnr5+atr7y3FVapLW1L9+TLjHOm2jTOPXJV6XFWmNXbZD+p0ed4Y5/fgVaXL7zdE78mZOgv8iHH/j/lfzyUF7e7+G3W0WokqCNaYoO0tHmgxO18C1papEpWOt7/V6zVpRvFw0ys+O3qrehIqJhPw8cOZev7H+aUHMxYUl02jt3qizsa8IMlNcxJ552Dfh2674p2Y9/Fk8mXB+2r6ddotEn3O/jhRN/vVXDjutsvNdxLMqh80YcolFg+Oj3pB9urJ9L6IRxnn45gbUvj95ePns4n0E78eWATJfH1ePZlcX53XfuoWqqF3UIaNUO6c+k6rTeapHzTBeSMN8mj6HuT7bWZe36+k178d/QHDtuOZuj/h9cVliApa42FMeGN9jHhsYT8trKdUC23xEpZXIXTfqN0piW8K2u5gflHT4kkO6Jv4xUpPiJedWMYxOU1iQZKb5iTybsLmqSdR8T4w6d789WzinobcX6fxi6b/hW/6jCjfRN5bRr6TYBb9IBf7zupfujfx40fGexwX87xwcX0GC9BJLDJD9Qj1UzCpMjjmtZ+6eQU/0Mm2Mp4R88PdaGXOqe+02mSe+kEOnDfiXOZ7EPD9Wub1/UqQX2pdhXc5zfK0JSFoV4aEYIiYFxQceR0FtkfFdlqALcm+qOytvq7FX9afXfqnTw/U0j9tuIlbbIc+ffqwtPO9ryFBC+4+/VSWD+LRplkJ8vKZJ3xH2UrcJE7lVm1Tfm0binPX2/59GtjS3dR+yw3vU4IJyv9Vy6fNRNX78X/Uf1/+w/Bu85p6dzAw///7eEG9+/G7IfufNv9H/XlsbcCfB/+jdor69vrfq3ci7O+Da+qnom472+L5sY7Tss6hAR2aWO7/Ufd6+MLLJzU5wQtpvMDFL4n49RDbPvxf8N2CBIJO2vrvISc9CEPnEfCRbZBrZ23xxVHZhurr+hU8FPeFNzxUj+fejwsh2qRn7HUb+h54fA7Zmgk+8CUtiX2Ry7LnvDd8WeA52mzILtKOzfnm9Stnix9zYFflOyyQ5aIY7SPtR8m3Vld431GO4nO9fZrHW2jhAuSiypVZ9t3ymagDyOnPPqlxDkLvNhQnq75F3weon/vxzdgHvPWuHUzf8d9rkVbuOMqtR6yfyncyzn7aZr6y6Q3PB/6ck9POsq+gTLWx757rOpV9FO2i/3V1NO3xazW2HE39oNX8nDEPSdumdgHj7AdgHO/jxs9FX0bcov1MfyrsbJ2r8nHeqLefP+6QT+jdSfh+q3RDzPP7NXGKeSRVRvOOxZwVw63P7do+bTtO0mdojQDVwkoLp6N7D5PbiZs8tBBaCJeCCqIZIs0XvgCC863O2wjXQqAur2rhquM7EX2qy2TO+WqR7M7rIp+3WsC6fHI9tLHyY9t1zJOb60VN2ZkwCPKyvLpN8MzUr4pT2omymHqg3qJujlT7+bbTxIlaCFAnTn/Sz9Dxfxd1gyiVQrfX/64Uqm6AlINm+/synsPFl2nm4CYqM5kk2spMNJhARd81v/hhconES01omExkWgCTbXBBggkbi5LC3k5W50OLnJz0gFvk+M99cu0c6fqinfWXJL4oii8e94upq4eta97WyJz0rJ3dUlP7slvVz/RELr90y7Ai3dBCzhH6IrdfDlW83Pdm2kzH8xfz9wNtmZVvbr9y9awtAm6bfIN9sHhm6hD6Qs3MtxxHRV3xLvCl6i8gcsebrUf9WeiX+FhfTv2AkurPkpTdUH2LNkbfkHFy6+uwbYt3pRd4Zf+v9yFXZzzz+0lpkzmOcuthwkQ/RbzQoje3v4zaT2OgbK5NymdITy8aQ/NBUzvbcR5oV7RBUZaqj1YLyPLdeGVu0w+y6mvKZ9vVpRn8/shsl7H3gzG+D1fXs1/xI0Ixr6DddD1NWcR3C+eN+LwBynEXqSPg+x0Ok8zz+wW2PRvecYYNmEtBK1leLISWFlWh8CZBGxOGsXgQZBCs/nPgx7G2VrRZsVuJPN+j6vDTnoWgjXmPQa1OCTsj4APvJNV+s8QJWtnJe4vXjCf2z81CvBY27nNpp0Xt7wd6kBTe2Prn4v/GIyv/H353KYa8BWIyMOGBybEME5O6T+7E5whNru6ZPyGlJlxHbLKOPffJtXOk6mvbcFhEynq0yS8nvcpOPxPvswnUI/ZOQeid49dWucDOfW+xvPAF5/e5nHxDhNoVX3y5fdPG12XRY8QsjDPHmJ9vbBwZO/Gl2Wa8uX7gfp12YNFTixdoAzDJhUuqHrL929TXYeMPP5f45Qr1Ndd+yXGZWQ8HyizfRaj8IcbTT9NjIfa+Y3Fz2hk2tbFfLLZdm8r2M+9T//+5joNwmW/bfpBTX2fTNA/ltMsk+sE434cfR5bJhImyu34vywc4b1SE5gsJ3+9wmGTe369JI5K+w7Wj//0wL2QLWkdbYWrCUoIsEgZBFvLcgvaCtp6+84Jii3HpGZ2FoE20mYxj6zQsyh2hi7pS7ZeLP0GFaNuxcwTtT5sLxiaGFKqwNZ7YTW87c8RzOwo3i+139clyeHJ0xARFauLzt9HZdKxgqNvlTbi56VnbcJo+uXaOZH0jk7Osh21n/1fWers3TfahLyL0a/n+0C7wyEsbiU07/oUWGify11Zjk/neUm029I6z8s3rB/jiyx3L9r3o8YBfxCMLnJx8Y23it7fLT6YlqaUZ6Afu127YlX0p831ILr1wieQJZJw29XU0vT/7g8hwmv4CJmcc5dbDYRZKRT9BeKjPTKyfRsoJYnVNheXkb+NWdrL+VbhN24ld/GiKvinL3LYfNNUXxGxq7zezXVL5jdIPcvOVz1Pvwy8fbOtjrEovlD7njTq2jeL15PsdDpPM/fvF+4u8H4dtx/w0p038DC08f0LwAbtVt9rOK0mJMzCKh3ZSgtYhyxQrx3x4aPPOM0vGIWgnQRsPbc5WBWcLIGz/LM7lAt/Dm0NsApCTtV0cpgd+iOiEZtLDlpvbnhgZnuhyJtw26aWe++TaOVITfewLzK9H7IvEL0tOeiGQh/vBIjVJoy7+F7TDX7CGyHlvIJZPqM815dumH8jFQBMyPry0frzcfGPvzNiJhVOo7jFiaYJa38p8H5JUf5bEx3m8bLXFWIv6OpoWLrG+4r/3vHGZVw/HPPTTGLH3HYvb1M4OM451/Ju6bn4eqfaT+bbtBzn1jdn4Zcxpl3H3AzDO9+HHkWUyYaLsqbrIMuW2n6TL84aP6deRd8j3Oxwmmff3a9ssXk+QYwOcUwq7J0Phk6JB0GohJjyD7pyqn4ixbxC05RlaEb+3iPOv8TO0kxS0uCwJZ21LOxOvEq/LizoezuZ6Z20llxW0ZVjGGdpg+zlPc2TLcWcFbblleEH9Li6L+ulHe5GU9NC6uE7AlgNphPOzABOAPD8GMJH4EwMmb0x88iyDsUtM+OkJrT5JOJHl/+qWM+G2SQ+Uk7+L72y9euTaOVITfWwS9784Qu0sn5efM9OzX8jeeyvObaYm/lCblmEZX+Q57w2YNtPPfE+rOU/jtWVTvq37ld/vdbvcNxdVeOfrRF3Q51EHWbY2+Zr6irrGztDmjrdYP8A5Qfnrc1nfIr2yfF6+klR/lqTshupb1AG/vNfaMLO+jqaFi9/PHO5dVuUJt1+wn2bUw4TNsp+iLsWz0HwVbGfTByGwq2eO3AWirZO2/WO47rE2NmFibJnPLfpBVn299B3++81tl3H2AzDO9+HXFbauTGVbNfT7b33e8AmN1TKM7zfJvL9fpIPv3lRdzDvW7eXKGaNcv4+wBr8MWVuOpWD0gdCS218lvqCCaGy65Rh5yTQqWytgZX5ObLo4EHZWmFohunPL/t/ZS0J5124bLi5TwoVT+OzqDwEq05FIYZlrZ21Fvrrc7pZj3xYe8lr7Gdt6Wk3tN0ukN9WJWilIjRAttgmbS6C8W46tB/Z/aiK3Jn71+6wOo492ftZMAL/aSazcyqEnM3gPfFscxh+y884rYKJy4T5yArIXc1RpmTOK5tICTKZ2wpVpuWdu4VTGKyajnPRc3sZ+6Ia98BdTk11OfTEpls+KL4pYPYx98aXiwky4EKVt0rNfHKH3Fp/EHYjrf2mE6ut/IbR6byif/r98f6Hy5eRr7Fr0A9vOsqy2reSXp8vXCQ27AAjUo0W+tT6l7ewtx8MLiKbx5pdFYtP10vPz1WMcX+j4LN+HTEdSG7+ZdtZ2+N2W7VqbE5rnF8xXLlxSvh+vn0mB6Mf9/79sNy5z6hEqX2iBNe5+6miarwD6Ta2dA32lqZ1DoC1cO7pnfh+V79v1PfNcxMvpB45UfWUfbZqHQE67gHH2AzCO9xH6TnBxUCb3HhC2v8V5o7RN9GcH8vTLxvcr0uzw+zXvNmGDdOUcEcJ3UE2TSwtaQgj5FsAvmLFfp8cFvlCavjCuOnaRPdl2JmTSmLHsLVoJ6TrT+B4ksyH13Wt/JKj/uBjC3Gsj/ozmNGl9KRQhhJDJQEGLNjgzvxI3bWsiZF7hjzKEkC5ithUHfojL8c7OGgpaQgiZA/xtQqEvlauI2x5WbYs6q52FJKQrhLb65Z5hI4QQMjoUtIQQQgghhBBCOgkFLSGEEEIIIYSQTkJBS8g3Smjsk/ESandCCCGEEDI+KGgJ+UYJjX0yXkLtTgghhBBCxgcFLSHfKHLM//DDD2owGKj/83/+DxkRtB/aUbZrqN0JIYQQQsj4oKAl5BvFjXeIsJBAI6MhRW2o3QkhhBBCyPigoCXkG8WNd3pmxwvak3MpIYQQQsh0oKAl5BvFjfeQKHOsbB2qly9fquPjPbU+ZeG7vnes8z1UWyvD+aJcx3vrQ8/nBc6lhBBCCCHTIUvQLt97o07vrQw9/9bZ3f/EdiGdxY33kCADg5UtdRgRlNMAgtaI6cMtteKJaQpaQgghhBACkoK2119Ru0/fqHcv/l3ydv+gloBk+d5rdfrbJ2H7Wt1d7AdtrwIpQdvrP1RHoi3aCF+k2zYOIU30npypsz92ys9uvIcEGbCCdvqeWQcE7eHWlto7xr8rtbCuCdo7L35Wz//1RG0/vq56a2vm//una+pG/+rOj7Mgt53v/3Ghzn69XXtGCCGEkG6SFLS7+2/U0WolqiBYY4K2t3igxex8CVhbpkpUOt7+Vq/XpBnFwz0vXvHnH/TCT4ugm1dg4d27va6+nq8Hw9pydPaLUn8dRvmyM1/t1evfVq8+n6vnq1W53HgPCTK31dghxWMqbDBYUVuHx2pvfd0IUbdV2YrTdRPm4u2tDwrRXHhiPfFs46yowfreUJgvaGU6Ji3PqztK/kDWVW5/bvJe+3PpjWdWaD1Y66ve0i21ffqz2n9xqwzvAq4OMVC3ULxpktvOvdUTdfb5TN3nDwqEEEJI54kKWuNhTHhjfYx4bGE/LaynVAttsXBZXoXQfaN2pyS+uyxowf1fz9VHLYZePem2R2Ocghb0dh4pdTb8jiB2503Q3sQ7/HBSe+bGe0iQgZCH1ghJ8cwJWCcu3efDw72a2IOglILQCUUnPP10XBznmTXxPVFd/1zlF0urbf4mDyGMpbBuK2gXHm+q/dNNdWdJC63+knoAofVsqfY+ugC8nqFyQ0jOg6Bt08700hJCCCFXg4SgXRkSgiFiXlBwJLxBzvao2E4LsCXZF5W91de1+Mv6s0v/9OmBWvqnDTdxi+3Qp08flna+9zUkaMHdp5/K8kE82jQrQV4+84TvKFuJm8Sp3Kptyq9tQ3Huetu/TwNbupvab3lEj0RvdUe9+nChRdGZuu+919Lm9or6cr5beSovdtWXk0c1EWlEoPBibujPXy+st/Pr2braEOU7OhNpIfz8kTq67dVX5/le27k0kOdXLTJlOr3+QL0/j3hUAwI3J1+QK2ghpL/I/HV67/16NLTL/+//KcIRtyifqaezQ1vvDGpplmn3b1tPu7d4d+M9JMiAL2gHA3hdh0WctCsFrbdF2BekNi14cqu0jGAUAlIKWl9A+oLWJ5RWm/xDdXV1k3FiyLkUWKG1phZ0v+z1r5utsdgWK8PhWZTexPJZIdDccwDv44Nie62Nt2Y++6LyxjObhmNb293w0yq25gLEX9Cf4dk09s9umTJL2xxBGyrfUB0a8r1+p9gyjLhFPbZ13s4O7fJgrWpD0NTOEmzB//j5rHH3Sa//vXp3PFB/Hy+odz+mbQkhhBAyfdJnaI0A1cJKC6ejew+T24mbPLQQWgiXggqiGSLNF74AgvOtztsI10KgLq9q4YqFSiGiT3WZzDlfLZLdeV3k81YLWJdProc2Vn5su455cnO9qCk7EwZBXpZXtwmemfpVcUo7URZTD9Rb1M2Raj/ftg03cQ7zM8RRdRYToNxftKh6L0QVhOTRiRZfQdGoRRjELwRaEWdjpxKiGzqeEWxC+G3swMOqxaWoA/KQNsCmPZxnjoc2N18gBS3ihcQtbJCnL7AhmkNe3FS7mPJr8fr1ZMWkYUQ6yqXLaspy8aiWj8Nur6xvNwZuvIcEGRgStIGtv+a5EH8x0SfFqR+nfJYQtEB6TEOC1nldyy3CibSa8sf/ZVqSUQRtDmaLbGB77J0XdUELofbAE3O9Jf3ME7QQd0YAirgLa8gjfHYXonRf52UEZJH2wpqOL/uuELRGPAbELWxQj1o8XWaIa19wg1S+btvw9uMlkwYEKuwgyk1ZCvHqp5lDbFz4UNASQggh801S0EqWFwuhpUVVKLxJ0MaEYSweBBkEq/8c+HGsrRUTVuxWIs/3qDr8tGchaGPeY1CrU8LOCPjAO0m1H8B2u0//+SvIR3FxUIhe33lrT0rvBoTY15OwhzCEtQ+3nRXHwwLShAkRGSMmXJsEbdt8zbPCq2oIlOu9Fqe+NxbEypJsFy+ObHMrdiNlLzxR/nlBN95DggzMm6C1cewzKWjdcxk3L620oA3VNZfUXBojX9BiK61+5nknJdYmLFxTXlYIR/+5RHpVjfc0kI5fXkesfql8/TjW1tbbit1wHXMw89jnC/XqyWjxCSGEEDIfZAtaR1thasJSgiwSBkEW8tyC9oK2nr7zgmKLcekZnYWgTbSZjGPrNCzKHaGLulLtdxliHlqIqzbnRlP2Vpz9ompiUSJE3dA2ZxMe9go3CtoW+Rp7IXJDHtqkQI6ENbbLLAWtt+03ZDdJQVva6Ly2pKD1ygmkNxefWwvaSF1zyZlLfXIFLTBe0GJ7rhGW2uZBIfRMuBF7VbhP6KIkiMWQB1UixXDIQ5sU0pGwVL4UtIQQQghpIn6GFp4/IfiA3apbbeeVpMQZGMVDOylB65BlipVjPjy0eeeZJeMWtE1naKW4yiEp3PqDqBCUWDt7drS2pTciXBsFbWa+jhxv8Sge2rEL2jFtOQYQhtJz6Z+ZnbSgdc+x9bcuaKu07Oe6x3bU/IfqupcneOVcmksbQSvBVtyFJS0WxZZjuy25ndhrK2hjjOKhnYmgzdxy/NPmgvrvy3+ovw+uBcMJIYQQMlsaBK0WYsIz6M6p+okY+wZBW56hFfF7izj/Gj9DO0lBi8uScNa2tDPxKvG6vKjj4Wyud9ZWcllBW4ZlnKENtp/zNEe2HI9L0ObccmwFlXeG9jbO0OLSot2hS5VSwg1ALEK8ybOs5uyp8IRaL2ddMG4Yj23iDC1EX2FvvbvaVojSnHylbZOgDaan2wVCN1T/iQjaMV0K5fDPqtaF4uQFbSlYxRlaWSaTRkNaOfkDxAvVdWKCVlwA5USqfymU9Yzeqp2NxRlanC+VwtB4cbUYrNnhLGvk7Ou4BG0wX1O++BnamQjazEuhfj+w52d/j3wPEEIIIWS2ZG05loLRB0JLbn+V+IIKorHplmPkJdOobK2Alfk5seniQNhZYWqF6M4t+39nLwnlXbttuLhMCRdO4bOrPwSoTEcihWWunbUV+epyu1uOfVt4yGvtZ2zraTW1X1va/B3a0C3H5uZiIeYgwmrbeB0BAYrLmGq3A8Mb650vlbcBA3N5Ey5xMjf/Dgu8DSOwC/tAesYmI99QPVJCtOmW46Z2MeLZPStEfBlHi2oraPXnIkymDUb5sz1kdGJzaRMLj6utxO6SJAhVfHZCzl725N0ijEuiivBaemshu7oghUh04RJ/W3LILiVEa/miLkLggqZ8IYzLZ4Wod3Egqq2gHRb8ueT82Z7e4jX15/FA/bn5XTCcEEIIIbPn0oKWEDL/2POC9e2VbrwPPA8suRxoz9hcSuYDu914+Fy5D7YbY6vxTyN6gQkhhBAyeVpfCkUI6SZmi6W4wdqN9x9++CEozMhooD05l843Od5ZQgghhHQDClpCvlHkmIcIo6f2cqD9pJgFoXYnhBBCCCHjg4KWkG+U0Ngn4yXU7oQQQgghZHxQ0BLyjRIa+2S8hNqdEEIIIYSMDwpaQjpCaKxeBUJ1JYQQQgghJAcKWkI6QmisXgVCdSWEEEIIISQHClpCOoIco129xIkXJxFCCCGEkHFCQUtIR3DjE4IwJBa7hBS1oboSQgghhBCSAwUtIR3Bjc+r8Od1UAfON4QQQggh5LJQ0BLSEdz4DAnELsL5hhBCCCGEXJYsQbt87406vbcy9PxbZ3f/E9uFTA03PkPisIvE5ptxc+fFz2r78fVgGCGEEEII6TZJQdvrr6jdp2/Uuxf/Lnm7f1BLQLJ877U6/e2TsH2t7i72g7ZXgZSg7fUfqiPRFm2EL9JtG6fLvD//Ram/DtXXk0Ew3JFrd1XoPTlTZ3/slJ/d+AyJwy7izzemzku31Pbpz2r/dFPdWUrPHQuP14zt8389Mey/WFM3AnEoaCdPm/eWy81fz9Wn//xl+CjGQVvw/tE/0Ad6a2u2r5zqvtJvX85ef0k9EH1uHvvVOOs7S9rWI3c+ILOnzTgad3+W88rZr7eDNuD+HxfJcELIfJEUtLv7b9TRaiWqIFhjgra3eKDF7HwJWFumSlQ63v5Wr9ekGcXDPS9e8ecf9KSuF5M3J7wY2jjZzRKqvl1v55ERuSG+7MxHX+zdXldfz9eDYTF6/dvq1edz9Xy1qoMbnyFxOBisqK3DY7W3bv99+fKlOj4+VFsr1XnbwcqWOjy2YSb8cEutiPO463vH6nBrvYwP9tYHtXjHx3tq3TvDu7J1WKUp8rTx6mWQ+PONqXcpjNILFms3nwtWU7YXt4JhV5Xc99YGLDzHsaC88cwuiB+s9atyjuH9LDzenEtBO6n6ppjE90SbethwCthRMG03w/mqaRxNqj83zS+91RN19vlM3Z/w2ocQMh6igtZ4GBPeWB8jHlvYTwvrKdVCW0xKy6sQum/U7pTEd5cFLbivJ/6PWly9ejK5XytHFbS5YbNkFEGLL9uPH05qz9z4DIlDJ2iloIRAlaJ1ZWuvEpvOfm+9TMPYi/hOqLo0QnFgI/MYrO+VonckQVv8ct+0YJn1IizFPJdtUuS+tzaMS9Biwew8x2U5ny0Fbdswr4J2UvVtYtzfE23q8S2OuXEx74J2Uv05Z36hl5aQ7pAQtCtDQjBEzAsKjoR3ydkeFdtpAbYk+6Kyt/q6Fn9Zf3bpnz49UEv/tOEmbrEd+vTpw9LO976GBC24+/RTWT6IR5tmJcjLZ57wHWUrcZM4lVu1Tfm1bSjOXW/792lgS3dT+y2P+Gtjb3VHvfpwoUXWmbrvvVcTfntFvT/TgvLCbgtWF/r/ZytqI5Dfxsmjmt0XLUJDYjTXrrIPh5Ve3ItH6kiX80uxddmkKby4R2fVluZQ3s4O+ZjnQqSWz7Tt+9s2zV5/UG6THiIhcOGdNR4P74vUjc+QOHRi83BrpXpmBOWwR7UMh/gUYtQIWiFWB4N1tXcMr28VX8ax4XXBWnmKw3lK5HwjwRaz5MJVL2jwi70PfsEv7YqFjwuLLZjcFjYXf0F/dulvP7ulFkT/Rd4Piu1vAFsa8dnl2+tfL7fH+Ywi9Grb65Z0fYq0sbiTdTW2OvzOM70wLMoOm23dhq78ZVq6zLDD/014UV+bZr2NbhR2ju2GLZyp9zYK4xW0a6Yt3DsK9Qe04YMXVZ1Nm2Aba+TdpRbiTe+jbpvuV23tcuvbBI48uK2ZMV498crY8D3Rhpx65M4HztZvP397fNN8cP1O+3GUS27/a6pH7rzRZr667Dzpt7MkNY7AuPqzT878gjHw8fNZ486DXv979e54oP4+XlDvfkzbEkImQ/oMrRGgWlhp4XR072FyO3GThxZCC+FSUEE0Q6T5whdAcL7VeRvhWgjU5VUtXDGpFSL6VJfJnPPVItmd10U+b7WAdfnkemhj5ce265gnN9eLmrIzYRDkZXl1m+CZqV8Vp7QTZTH1QL1F3Ryp9vNt23AT5zo/Q2zVz7RBvG0UQs5hBKIn3IzoFEIX8Y7wTItHKUZz7SQxQQvQrl+02DSCc8fabOys6/R2tcitym3SOK/nDUzeIu2Y1/W9jusEraOth9ZudapvNwZufIbEYUhIhjykcnuw9L4izG45FoI4JFiloNX/l2lJLiNoscWsacFiFrKZIrFpwQSQ575eTJrFV7EgXVgTglAvpB54i9Xekn6mF1ehhfO4PB5WmGNBtynKhUX8Zk1conwL3qLR1qkqhymXXoRuP14y9lgYor5IBwtWt2iErWkzLNRFmiZf2ItxIcl5b20Yl6DNwbWza2P77Lq6gcV05F2m+lXO+wC5/SrXbl6IfU9MiqYxh/6N8JrwwvvVojTUfqn5oM04yiW3/+XWI3feMLYt5qvGebJlO4Oc+XkSZAnayHexDwUtIbMnKWgly4uF0NKiKhTeJGhjwjAWD4IMgtV/Dvw41taKNit2K5Hne1QdftqzELQx7zGo1SlhZwR84J2k2g9gK03oF3fQdAFLr+9+hT9J/nLpCzkrKh+po0AciF8nGHPtfJoF7S9D52p9AYo0lBaz0gZAUMsyTVTQFr8K+2d33PgMicMmQeu8rUPbgy8paENnanNJzTdNtFmE5QpaLFBDYSC04IzRpmxN2HyHRcsdvahMeT2AXw7/sxSgJgweHd3nbJ5h4WoW7GP0wqaYpqCVbZFL24V4qF/k9qs2/W9eyP2eGAdNYy42XmLxUvNB7jhyYc5T6SPHUW7/y61Hm3mjqe0kqXYBbdsZzLWgRR/+fDG0E4EQMn9kC1pHW2FqwlKCLBIGQRby3IL2graevvOCYotx6RmdhaBNtJmMY+s0LModoYu6Uu13GaIeWrOVt9h2W26r1Z+loE0IOylGc+3ahMVEckjQxtKQtp0TtIHtx/7519aCNuABbkPOfBOjzSIsV9DGPAgO430ottmZBalevD0IpNumbE3ExKW/cPS3K7ryDXloxefYQtz+P7EQH1Pdmpi2oG16/z6pfpXzPkrb3H6VaTcuRtly7JgnD23yB5pIWKo/5I4jF55D1vzToh658wZItZ1Psl1GaGdAQUsIGQfxM7Tw/AnBB+xW3Wo7ryQlzsAoHtpJCVqHLFOsHPPhoc07zywZt6BNnY2y3kucRx3Utun6Qi7X85pr5zMuQTtzD+0Ethz74tN+rnts2wpaF0d6aU059vIEr5xv2tJmETYuQSvBNrqF4nyaH69N2ZrIWZiiLPDeYTtqbaufVw7/c2whbtMLLz4vy872QP335T/U39vfB8MlXfXQ5r6PEKl+Jcm1mzbjPEPbhqa2bes5TAq3zHHkwnPI7X+59ZiFoAVt2xnMtaDN3HL80+aCndcOrgXDCSGTp0HQaiEmPIPunKqfiLFvELTlGVoRv7eI86/xM7STFLS4LAlnbUs7E68Sr8uLOh7O5npnbSWXFbRlWMYZ2mD7FbaxLcfjErRNt1dasegJQ3f5kifkjOic2RnaTA+tfpZ1hlbUuayv1w6Vrc67eG692do2IJxN+CUuhUqdoa39eR2I0ktuOXbPEE+en3VpXCVBizT2cfmJWKzhDCPOz/nxykVtYWu9dT+PtFU3T9DCpr6QdGJnFA+t+ezOwsn6ahFlzvSNuOW41/9O/X5gz5n9HplTJdMUtLb+ug3Fll683xvmb5sOnzsEcUGb9z7M88x+1ab/zYpp3IYfo2k+CPZn03744WG4/VLzQZtxlEtu/8utR2tBmzlfNc2TbdsZ5MzPkyBL0Ba7pZq2zLeZ1wghkyFry7EUjD4QWnL7q8QXVBCNTbccIy+ZRmVrBazMz4lNFwfCzgpTK0R3btn/O3tJKO/abcPFZUq4cAqfXf0hQGU6Eiksc+2srchXl9vdcuzbwkNeaz9jW0+rqf3akvv3BTd2xK3Amq/nWsCZS5cg8upCMnZ7sfksRF6OXc7foa3ZFILTClxR3kKsOlFcq0+RtyuXo1Y+XV9cNuVuNfaF9XBdwuPJgS/bNn+2p4vE5psUWDC5LZc+csGERVLIBvhn14I23uLYLLq0oMBCr7TRC83Yls8FsxC1ttZuBDEr6moud9GLRLtQrcrgFoLy1lHzHJfUrGGhqhemerH6f4vbWYFLy9Ud7WEXtbCtFry4RGa4vqOJWdBbvKb+xMUpGd5ZME1BC0K3zJobXMXiPLdfNb0PJzRy+1Xb/jdtpvX3yn1y5wNjq/t4rf1wsZF4t6BpPgiNyaZxlEtO/7N26Xq0mTccTfNV7jwJcto5dxxNkpz5JefP9rh57c/N74LhhJDpcGlBS8hVIuXlnSb27E59q5MbnwPhHe0qqENsviFXE2zLa+PFmLagJYR8OzTNL3a78fBdFj5mXju4pn6a8o85hJA6rS+FIuQqMy+CFpjtTuLGaTc+f/jhh6BI7BKoA+ebbwucn831zgIsON3lQ003rxNCSA5yXkkJ2hzvLCFkfqCgJaTA/N1cbAl2RM64zgo5RiEIu+ipRZmlmAWhuhJCCCGEEJIDBS0hHSE0Vq8CoboSQgghhBCSAwUtIR0hNFavAqG6EkIIIYQQkgMFLSEdITRWrwKhuhJCCCGEEJIDBS0hHSE0Vq8CoboSQgghhBCSAwUtIR1BjlFeCkUIIYQQQggFLSGdwY1PCMKQWOwSUtSG6koIIYQQQkgOFLSEdAQ3PrvomfVBHTjfEEIIIYSQy0JBS0hHcOMzJBC7COcbQgghhBByWbIE7fK9N+r03srQ82+d3f1PbBcyNdz4DInDLhKbbwghhBBCCMklKWh7/RW1+/SNevfi3yVv9w9qCUiW771Wp799Erav1d3FftD2KpAStL3+Q3Uk2qKN8EW6beN0mffnvyj116H6ejIIhjty7a4KvSdn6uyPnfKzG58hcdhF/PnG1Hnplto+/Vntn26qO0vDc0evv6Qe6PDn/3pi2H58fciGjI+m9zEKN389V5/+85fho+jfbbnzwvYD9IHe2pr5//7pmrrRb1/OLvSrcdZ3lrStx8LjNdMHYWdsX2jbMfVFMl7ajKNx92c5r5z9ejtoA+7/cZEMJ4R0k6Sg3d1/o45WK1EFwRoTtL3FAy1m50vA2jJVotLx9rd6vSbNKB7uefGKP/+gJ3+96Lw54UXTxslullD17Xo7j4zIDfFlZz76Yu/2uvp6vh4Mi9Hr31avPp+r56tVHdz4DInDwWBFbR0eq711++/Lly/V8fGh2lqpztsOVrbU4bENM+GHW2pFnMdd3ztWh1vrZXywtz6oxTs+3lPr3hnela3DKk2Rp41XL4PEn29MvUsB1bywWXi8OVXhYcr24lYw7KrS5n3kgoXnOBaUN57ZBfGDtX5VzjG8n2n3q1wmVd8Uk5j/29TDhlPAjoJpuxnOV03jaFL9uWl+6a2eqLPPZ+r+hNc0hJDpEhW0xsOY8Mb6GPHYwn5aWE+pFtpi8lpehdB9o3anJL67LGjBff0F8VGLq1dPJver5qiCNjdslowiaPGl/PHDSe2ZG58hcegErRSUEKhStK5s7VVi09nvrZdpGHsR3wlVl0YoDmxkHoP1vVL0jiRoi1/4cxY2FLSTp837yGVcghbv33mOy3I+WwratmFeBe2k6tvEuOf/NvX4FsfcuJh3QTup/pwzv9BLS8jVIyFoV4aEYIiYFxQcCe+Ssz0qttMCbEn2RWVv9XUt/rL+7NI/fXqglv5pw03cYjv06dOHpZ3vfQ0JWnD36aeyfBCPNs1KkJfPPOE7ylbiJnEqt2qb8mvbUJy73vbv08CW7qb2Wx7xV8ne6o569eFCi6wzdd97ryb89op6f6YF5YXdFqwu9P/PVtRGIL+Nk0c1uy9ahIbEaK5dZR8OK724F4/UkS7nl2LrsklTeHGPzqotzaG8nR3yMc+FSC2fadv3t22avf6g3CY9RELgwjtrPCPeF64bnyFx6MTm4dZK9cwIymGPahkO8SnEqBG0QqwOButq7xhe3yq+jGPD64K18hSH85TI+UaCrWg5C5vUgqm3tKTuPNPhepFkt7Lp/+s0FwL9EQu/B8X2N2P7Ys18hufAhPevl9vjfEYRerXtdbqcLm+U0eVZ2jbUo0xLlxl2+L8J18+Nx8OkWW+jG4WdY7thC2fu+8hlvIJ2zbSFe0eh/oA2fPCiqrNpE2xjjby7afWrtna59W0CRxnc1swYr554ZWyY/9uQUw8jxoo29slpP397vBsnLr4bH/i8/eyWun6n/TjKJbf/NdUjd95oM181tYvs1zntLEmNIzCu/uyTM79gDHz8fNa486DX/169Ox6ov48X1Lsf07aEkNmSPkNrBKgWVlo4Hd17mNxO3OShhdBCuBRUEM0Qab7wBRCcb3XeRrgWAnV5VQtXTH6FiD7VZTLnfLVIdud1kc9bLWBdPrke2lj5se065snN9aKm7EwYBHlZXt0meGbqV8Up7URZTD1Qb1E3R6r9fNs23MS5zs8QW/WzbxBvG4WQcxiB6Ak3IzqF0EW8IzzT4lGK0Vw7SUzQArTrFy02jeDcsTYbO+s6vV0tcqtymzTO63kDk7dIO+Z1fa/jOkHraOuhtVui6tuNgRufIXEYEpIhD6ncHiy9rwizW46FIA4JVilo9f9lWpLLCFpsRctZ2CSFh14gLXiLLaQ7tKDTdg+8xWpvST/Ti6vQwnlcHg/rkSg8FEXeC2tYxG/WxGVOPdzif/vxkrHHwhCLTaSDBatbNMLWtBkW6iJNky/sI3ND7vvIZVyCNgfXzq6N7bPr6gYW05F3Oc1+lWs3L8Tm/0nRNObQvxFeE154v1qUhtrPviu8ey3GynFnf5BoM45yye1/ufXInTeMbYv5KtUu+H/bdgZNgnZSZAnayHesDwUtId0hKWgly4uF0NKiKhTeJGhjwjAWD4IMgtV/Dvw41taKNit2K5Hne1QdftqzELQx7zGo1SlhZwR84J2k2g9gy03ol3nQdFFLr+9+rT9J/sLpCzkrKh+po0AciF8nGHPtfJoF7S9D52p9AYo0lBaz0gZAUMsyTVTQFr8e+2d83PgMicMmQeu8rUPbgy8paENnanNJzTc5tF0whRZ4oQVnjDYLxCZsvsOi5Y5eVKa8HsAvh/9ZClATBo+O7ks2z7BwNQv2MXphU0xT0I4ixqfZr9r0v3khd/4fB01jLjZeYvFsf8jb3hwbRy7MeSp95DjK7X+59WgzbzS1nSTVLqBtO4O5FrTow58vhnYiEEK6S7agdbQVpiYsJcgiYRBkIc8taC9o6+k7Lyi2GJee0VkI2kSbyTi2TsOi3BG6qCvVfpch6qE1W3mLbbfltlr9WQrahLCTYjTXrk1YTCSHBG0sDWnbOUEb2H7sn39tLWgDHuA25Mw3KZKeNG+bn1lo6s8hr5zxPhTb7Jzdg0C6bRaITcTEpb9wzKmHX67YQtz+P7EQH1Pdmpi2oI15kGJMvV9l2o2LUbYcO+bJQ5v8gSYSluoPuePIheeQ0//a1CN33gCptvNJtssI7QwoaAkh0yR+hhaePyH4gN2qW23nlaTEGRjFQzspQeuQZYqVYz48tHnnmSXjFrSpM1TWe4nzqIPaNl1fyOV6XnPtfMYlaGfuoZ3AlmNffNrPdY9tW0Hr4kgvrSnHXp7glfPNKMQWTNgKB68XtnHWtshlLPAQd6E4n+Yv8NosEJvIWZjm1sP/HFuI2/TCi8/LsrM9UP99+Q/19/b3wXBJVz20k+pXkly7aTPOM7RtaGrbtp7DpHDLHEcuPIfc/pdbj1kIWtC2ncFcC9rMLcc/bS7Yee3gWjCcEDI/NAhaLcSEZ9CdU/UTMfYNgrY8Qyvi9xZx/jV+hnaSghaXJeGsbWln4lXidXlRx8PZXO+sreSygrYMyzhDG2y/wja25XhcgrbplksrFj1h6C5f8oScEZ0zO0Ob6aHVz7LO0Io6l/X12qGy1XkXz603W9sGhLMJv8SlUKkztLU/rwNResktx+4Z4snzsy6N2QlaLPrqCzAnEnxPGtLYx+UnwhZnGHF+LihosZgsbK23Tqc5wlbdPEGbVw9/UZlaiJdn4WR9tYgyZ/pG3HLc63+nfj+w58x+j8yVkmkKWlt/3YZiSy/e7w3zt02Hzx2CafarNv1vVkzjlvsYKcEEgv3ZtB9+eBhuv2kL2tz+l1uP1oI2c75qErRt2xnExtGkyRK0xS6opi3zbeY1QshsydpyLAWjD4SW3P4q8QUVRGPTLcfIS6ZR2VoBK/NzYtPFgbCzwtQK0Z1b9v/OXhLKu3bbcHGZEi6cwmdXfwhQmY5ECstcO2sr8tXldrcc+7bwkNfaz9jW02pqv7bk/h3CjR1xK7Dm67kWcObSJYi8upCM3V5sPguRl2OX83doazaF4LQCV5S3EKtOFNfqU+TtyuWolU/XF5dNuVuNfWE9XJfweHLgS7nNn+3pIrH5JgUWSW5rpo9cqMnbOoG59GgNCzy9oBMLQrPo0oICC70yHb3QjG35XDALUWtr7UYQs7psMi8sRO1CVZS3yL+pHv+3uJ0VuLSwODWfdXvYRS1sqwUvLpEZru9oYhb0Fq+pP3FxSoZ3FkxT0AJ/mzDqa25wFYvzWfWrtv1v2kzr75D7yDHi4wso9PFa++FiI/FugRsTPu6HiNCYbBpHueT0P2uXrkebecPRNF81tYskp51zx9EkyZlfcv5sj5vX/tz8LhhOCJkvLi1oCblKpLy808Se8alviXLjcyC8o10FdYjNN6RbYFteGy/GtAUtIeTboWl+sduNh++o8DHz2sE19dOUf8whhIxG60uhCLnKzIugBWZblLhx2o3PH374ISgSuwTqwPnmaoDzs7neWYAFp7t8qOlGdUIIyUHOKylBm+OdJYR0DwpaQgrM383FlmBH5IzrrJBjFIKwi55alFmKWRCqKyGEEEIIITlQ0BLSEUJj9SoQqishhBBCCCE5UNAS0hFCY/UqEKorIYQQQgghOVDQEtIRQmP1KhCqKyGEEEIIITlQ0BLSEUJj9SoQqishhBBCCCE5UNAS0hHkGOWlUIQQQgghhFDQEtIZ3PiEIAyJxS4hRW2oroQQQgghhORAQUtIR3Djs4ueWR/UgfMNIYQQQgi5LBS0hHQENz5DArGLcL4hhBBCCCGXJUvQLt97o07vrQw9/9bZ3f/EdiFTw43PkDjsIrH5Zt658+Jntf34ejCMEEIIIYRMl6Sg7fVX1O7TN+rdi3+XvN0/qCUgWb73Wp3+9knYvlZ3F/tB26tAStD2+g/VkWiLNsIX6baN02Xen/+i1F+H6uvJIBjuyLW7KvSenKmzP3bKz258hsRhF/HnG1PnpVtq+/RntX+6qe4szefckRK0vf6SeqDL//xfTwxNwncS9b3567n69J+/DB9F/2kL6unq0FtbM//fP11TN/rty9m2XWbBOOs7S9rWY+HxmumDsDO2L7TtnI69b50242jc/VnOK2e/3g7agPt/XCTDCSFkEiQF7e7+G3W0WokqCNaYoO0tHmgxO18C1papEpWOt7/V6zVpRvFwz4tX/PkH/eWkF8U3J7yo2zjZzRKqvl1v55ERuSG+7MxHX+zdXldfz9eDYTF6/dvq1edz9Xy1qoMbnyFxOBisqK3DY7W3bv99+fKlOj4+VFsr1XnbwcqWOjy2YSb8cEutiPO463vH6nBrvYwP9tYHtXjHx3tq3TvDu7J1WKUp8rTx6mWQ+PONqXcp8LonJHwWHm82CrdJ1BcLz3EsKG88swviB2v9qpwvbgVt25DTLrNgUvVNMYn5tU09bDgF7CiYtptw/0jRNI4m1Z+b5pfe6ok6+3ym7nd8/iaEdIuooDUexoQ31seIxxb208J6SrXQFpPr8iqE7hu1OyXx3WVBC+7rL7CPWly9ejK5X11HFbS5YbNkFEGLRcPHDye1Z258hsShE7RSUEKgStG6srVXiU1nv7depmHsRXwnVF0aoTiwkXkM1vdK0TuSoC08EJMWEtMgS9BOoL7jErQov/Mcl+V8thS0bcO8CtpJ1beJcc+vbeoxa1HWZeZd0E6qP+fML/TSEkKmTULQrgwJwRAxLyg4Et4lZ3tUbKcF2JLsi8re6uta/GX92aV/+vRALf3Thpu4xXbo06cPSzvf+xoStODu009l+SAebZqVIC+fecJ3lK3ETeJUbtU25de2oTh3ve3fp4Et3U3ttzzir6a91R316sOFFlln6r73Xk347RX1/kwLygu7LVhd6P+fraiNQH4bJ49qdl+0CA2J0Vy7yj4cVnpxLx6pI13OL8XWZZOm8OIenVVbmkN5OzvkY54LkVo+07bvb9s0e/1BuU16iITAhXfWeG68BYEbnyFx6MTm4dZK9cwIymGPahkO8SnEqBG0QqwOButq7xhe3yq+jGPD64K18hSH85TI+UaCrXKphdeNZ5vG8+DYFlsky611+tmdwm5bp7Wgn1tP6KZ6sFYtAntLS8YOYSaeDjf2Xr91C8IyzwxBlivcmurblvEK2jXTFr3+dVPOUH3Qhg9eVO/EtDG2sUYW+6l2yX0f1vaWzrd6J3jn+AyP1Ch2ufVtAkcF3NbMGK+eeGVsmF/bkFMP57FzbSLJaT9/e7wbdy6+G2/4vP3slrp+p924bENu/2uqR21brknT2tqyCbuiTV06Ev+HqaZ2kf06p50lTfPLuPqzT878gjHw8fNZ486DXv979e54oP4+XlDvfkzbEkJIivQZWiNAtbDSwuno3sPkduImDy2EFsKloIJohkjzhS+A4Hyr8zbCtRCoy6tauGJyLkT0qS6TOeerRbI7r4t83moB6/LJ9dDGyo9t1zFPbq4XNWVnwiDIy/LqNsEzU78qTmknymLqgXqLujlS7efbtuEmznV+htiqn82DeNsohJzDCERPuBnRKYQu4h3hmRaPUozm2klighagXb9osWkE54612dhZ1+ntapFbldukcV7PG5i8Rdoxr+t7HdcJWkdbD63dslXfbgzc+AyJw5CQDHlI5fZg6X1FmN1yLARxSLBKQav/L9OSXEbQYqtcbOFlFnFYCIuF3sIaPCXVll23WN9+vKTfu13IYXEI0YsFplvkGVsdLtMCyD/lMW1aSDpy7VL1HYVxCdocrNDfVHfkjwS6TW9gMT2KoM18H7BDvvUfJ/Qz/a598ZFjNy/E5tdJYcZKoq9jvCC8JrzwfrUoDbWffVd491qMFW2+sGZ/kGgzLnPJ7X+59XDpQcRW5Ue5N4e2ZTe1nSTVLvh/23YGufPLuMkStJHvMB8KWkLIuEgKWsnyYiG0tKgKhTcJ2pgwjMWDIINg9Z8DP461taLNit1K5PkeVYef9iwEbcx7DGp1StgZAR94J6n2A9gSFPIcgKaLZHp95004Sf4C6ws5KyofqaNAHIhfJxhz7XyaBe0vQ+dqfQGKNJQWs9IGQFDLMk1U0Ba/bvtnkNz4DInDJkHrvK1D24MvKWhDZ2pzSc03IexisxKutTAsiAsvp7/QlILRLqrDaTiaFqrjFrTjZpqCdhQx3rZdQu8jJGRC5NrNE7nz6zho6ut3tAgLeQlj8Wx/yNvenBqXCHOeSh+5myG3/+XWw/aX4R87QvGb2k6SahfQtp3BXAta9OHPF0M7EQghZFJkC1pHW2FqwlKCLBIGQRby3IL2graevvOCYotx6RmdhaBNtJmMY+s0LModoYu6Uu13GaIeWrOVt9h2W26r1Z+loE0IOylGc+3ahMVEckjQxtKQtp0TtIHtx/7519aCNuABbkPOfCOxi97EQrdY+PmLwNTC2d+uaNOJexcBBW0F2ratpzPVLm3eh/Fqif4AuweBdHPtxsUoW44d8+ShTf6AFAlL9Yc24zKXnP7Xph4x23EI2mi7jNDOgIKWEEIq4mdo4fkTgg/YrbrVdl5JSpyBUTy0kxK0DlmmWDnmw0Obd55ZMm5BmzrjZb2XOI86qG3T9YVcruc1185nXIJ25h7aCWw59sWn/Vz32LYVtC6O9NKacuzlCV453+SALXixxZ0kd+Fs08OWvuv1rX4NC9VZCNqd7YH678t/qL+3vw+GS7rqoR31fQDEXSjOPaYETq7dtBnnGdo2NLXtKB7aaQvanP7XzkM7XI5JClpw5Ty0mVuOf9pcsPPawbVgOCGE5NIgaLUQE55Bd07VT8TYNwja8gytiN9bxPnX+BnaSQpaXJaEs7alnYlXidflRR0PZ3O9s7aSywraMizjDG2w/Qrb2JbjcQnapls4rVj0hKG7fMkTckZ0zuwMbaaHVj/LOkMr6lzW12uHylbnXTy33mxtGxDOJvwSl0KlztDW/rwOROkltxy7Z4gnz8+6NMYtaEF51kws/iBSzJm5lluO7eK1vpB0YmeePLS9/nfq9wN7zuz3yFwkmaagte2p21Bs6cUZ1Rvmb5sOnzsEcUGb/z6Qxj4u1ZH9QOeLc5lSOOTazZJp3CIfo0mUBcebab/w2c5pC9rc/pdbj9aCFrYuD9dXxZZoR5OgbdvOYFzzS1uyBG2xy6hpy3ybeY0QQlJkbTmWgtEHQktuf5X4ggqisemWY+Ql06hsrYCV+Tmx6eJA2FlhaoXozi37f2cvCeVdu224uEwJF07hs6s/BKhMRyKFZa6dtRX56nK7W459W3jIa+1nbOtpNbVfW3L/TuLGjrgVWPP1XAs4c+kSRF5dSMZuLzafhcjLscv5O7Q1m0JwWoEryluIVSeKa/Up8nblctTKp+uLy6bcrca+sB6uS3g8ObBoaPNne7pIbL5pApe0YOFYbiHVC9cHjwsxqxeG8jkWoVhMms96oWkXoXrRWYTJW0eBuVxKp29tqoUtFo/OxkcuYHPt2tBbvKb+xMUpGd5ZME1BC0K3zJobXMXiPLv9WrwP5DHcD+oL/Fy7WTGtv/PtI8eJjy+gMGZq7YeLjcS7BW6M+ZTHAFqOS5l2Ezn9z9ql6xEqoxW4VRxfQC4Y4VzUw/Sr+hhvahdJTjtPYn5pS878kvNne9y89ufmd8FwQghpw6UFLSFXiZSXd5rYM0j1LVtufA6Ed7SroA6x+YbUwba8Nl6MaQtaQsi3Q9P8YrcbD98B4WPmtYNr6qcp/5hDCLmatL4UipCrzLwIWmC2bYkbp934/OGHH4IisUugDpxv8sD52VzvLMCC010+1HRjOSGE5CDnlZSgzfHOEkLIuKGgJaTA/N1cbAl2RM64zgo5RiEIu+ipRZmlmAWhuhJCCCGEEJIDBS0hHSE0Vq8CoboSQgghhBCSAwUtIR0hNFavAqG6EkIIIYQQkgMFLSEdITRWrwKhuhJCCCGEEJIDBS0hHSE0Vq8CoboSQgghhBCSAwUtIR1BjlFeCkUIIYQQQggFLSGdwY1PCMKQWOwSUtSG6koIIYQQQkgOFLSEdAQ3PrvomfVBHTjfEEIIIYSQy0JBS0hHcOMzJBC7COcbQgghhBByWbIE7fK9N+r03srQ82+d3f1PbBcyNdz4DInDLhKbbwghhBBCCMklKWh7/RW1+/SNevfi3yVv9w9qCUiW771Wp799Erav1d3FftD2KpAStL3+Q3Uk2qKN8EW6beN0mffnvyj116H6ejIIhjty7a4KvSdn6uyPnfKzG58hcdhF/PnG1Hnplto+/Vntn26qO0tXd+6YNZNo55u/nqtP//nL8FH027bcefGzev6vJ2r78XXVW1sz/98/XVM3+u3L2esvqQe6nkjDpRmymyXjrO8saVuPhcdrpg/Czti+0LYc83NJm3E07v4s55WzX28HbcD9Py6S4YSQq01S0O7uv1FHq5WogmCNCdre4oEWs/MlYG2ZKlHpePtbvV6TZhQP97x4xZ9/0F8SenF6c8KLq42T3Syh6tv1dh4ZkRviy8589MXe7XX19Xw9GBaj17+tXn0+V89Xqzq48RkSh4PBito6PFZ76/bfly9fquPjQ7W1Up23HaxsqcNjG2bCD7fUijiPu753rA631sv4YG99UIt3fLyn1r0zvCtbh1WaIk8br14GiT/fmHqXQqt7C/ouMYl2xsJzHAvKG8/sgvjBWr8q54tbQds2LDzenEtBO6n6ppjEvN6mHjacAnYUTNtNuH+kaBpHk+rPTfNLb/VEnX0+U/f5vUHIN0lU0BoPY8Ib62PEYwv7aWE9pVpoi0lueRVC943anZL47rKgBff1F8lHLa5ePZncr5+jCtrcsFkyiqDFl/fHDye1Z258hsShE7RSUEKgStG6srVXiU1nv7depmHsRXwnVF0aoTiwkXkM1vdK0TuSoC08AZNe0H/rTKKdxyVosWB2nuOynM+WgrZtmFdBO6n6NjHueb1NPWYtyrrMvAvaSfXnnPmFXlpCvl0SgnZlSAiGiHlBwZHwLjnbo2I7LcCWZF9U9lZf1+Iv688u/dOnB2rpnzbcxC22Q58+fVja+d7XkKAFd59+KssH8WjTrAR5+cwTvqNsJW4Sp3Krtim/tg3Fuett/z4NbOluar/lEX+97K3uqFcfLrTIOlP3vfdqwm+vqPdnWlBe2G3B6kL//2xFbQTy2zh5VLP7okVoSIzm2lX24bDSi3vxSB3pcn4pti6bNIUX9+is2tIcytvZIR/zXIjU8pm2fX/bptnrD8pt0kMkBC68s8aD4n0xu/EZEodObB5urVTPjKAc9qiW4RCfQowaQSvE6mCwrvaO4fWt4ss4NrwuWCtPcThPiZxvJNiyFloAYaFktq+JxVz5LLB1Fgu/B8X2NxtvzXyG50Da3Xhm03BsB7Y+uq1zAPEX9Gd4Hoz9s1tqQffz2va6Jb2QK/JG2fw8ezr8js7XpQGbbV1npCPzQ5lhZ/PR4UW+Ns36ojKnHpJYO4/KeAXtmm3T/nVTztACGm344EVVZ9Mm2MYaWeynFuJN76Num9evcu1y69sEjii4rZkxXj3xytgwr7chpx5GjBVt7JPTfkNjvGFcXr/Tfhzlktv/muqRO2+4NnXpSPwfpnLmq9I2o50lqXEExtWffXLmF4yBj5/PGnce9Prfq3fHA/X38YJ692PalhDSDdJnaI0A1cJKC6ejew+T24mbPLQQWgiXggqiGSLNF74AgvOtztsI10KgLq9q4YpJshDRp7pM5pyvFsnuvC7yeasFrMsn10MbKz+2Xcc8uble1JSdCYMgL8ur2wTPTP2qOKWdKIupB+ot6uZItZ9v24abONf5GWKrfkYO4m2jEHIOIxA94WZEpxC6iHeEZ1o8SjGaayeJCVqAdv2ixaYRnDvWZmNnXae3q0VuVW6Txnk9b2DyFmnHvK7vdVwnaB1tPbR261R9uzFw4zMkDkNCMuQhlduDpfcVYXbLsRDEIcEqBa3+v0xLchlBiy1rceER9k7c0QvL2iJRL6QeeIvV3pJ+phdXcpFoFmdY4Iq4C2vIQy8uA2MFZdvXeZlFX5H2wpoQosYjgQWdLk8ZjkX8Zk1conwyT2DTrurmFv/bj5eMPRaGyBfpYMHqFo2wbVsPkGrnURiXoM3BtbNrY/vsurqBxfQogjbjfYDcfpVrNy/E5vVJERvHDvRvhNeEF96vFqWh9kuNyzbjKJfc/pdbj9x5w9g2tJ2kcb5q2c6gSdBOiixBG/nu9KGgJeTqkRS0kuXFQmhpURUKbxK0MWEYiwdBBsHqPwd+HGtrRZsVu5XI8z2qDj/tWQjamPcY1OqUsDMCPvBOUu0HsDUn9As+aLrQpdd3v+qfJH8J9YWcFZWP1FEgDsSvE4y5dj7NgvaXoXO1vgBFGkqLWWkDIKhlmSYqaItfmf2zQG58hsRhk6B13tah7cGXFLShM7W5pOabGPmCdnjB6WNtwoLPLHQD3ksrAuNeTZvmsGjxyxfCr5v/WQpQu0i3ZR+lHpNgmoJWtkUubRfiob6W069Art08kTuvj4PYOHbExkssXmpc5o4jF+Y8lT5yHOX2v9x6tJk3mtpOkmoX0LadwVwLWvThzxdDOxEIIVefbEHraCtMTVhKkEXCIMhCnlvQXtDW03deUGwxLj2jsxC0iTaTcWydhkW5I3RRV6r9LkPUQ2u28hbbbstttfqzFLQJYSfFaK5dm7CYSA4J2lga0rZzgjaw/dg//9pa0AY8wG3ImW98Ygut4MIP3odim51ZkGqbB2IhZheziQVsIB8sEGOeCxATl375/O2KNj/Pu+PVNbYQH6Uek2Dagjb1HkIkPbQZ76O0behXbe3GxShbjh3z5KFN/kATCUv1h9xx5MJzyOl/beqRO2+AVNv5JNtlhHYGFLSEkHkkfoYWnj8h+IDdqltt55WkxBkYxUM7KUHrkGWKlWM+PLR555kl4xa0qbNW1nuJ86iD2jZdX8jlel5z7XzGJWhn7qGdwJZjX3zaz3WPbVtB6+JIL60px16e4JXzTS6xxVzM0+DANrqF4nyaW+DhWWzRFqNpIZuzMLX5YkufLpOw8+uWuxAfpR657GwP1H9f/kP9vf19MFzSVQ9t7vsIEepXIXLtps04z9C2oaltY+M5Fi8p3DLHkQvPIbf/5dZjFoIWtG1nMNeCNnPL8U+bC3ZeO7gWDCeEdI8GQauFmPAMunOqfiLGvkHQlmdoRfzeIs6/xs/QTlLQ4rIknLUt7Uy8SrwuL+p4OJvrnbWVXFbQlmEZZ2iD7VfYxrYcj0vQNt2GacWiJwzd5UuekDOic2ZnaDM9tPpZ1hlaUeeyvl47VLY67+K59WZr24BwNuGXuBQqdYa29ud1IEovueXYPUM8eX7WpTExQYutnMUizIkEc/ZMLMyw6NrH5SfiGc4w4vycXOAZL5peuNXstPgwZ+EiW47TwiVH0MLGK6+rh1zkeovK1EK8bT1y6PW/U78f2HNmv0fmQMk0BW3ZD8SWXrzfG+Zvmw6fOwRxQZv3PszzzH6VazdLpnF7fYyUYALB/mzaDz88DLdfaly2GUe55Pa/3Hq0FrSwdXm4vjrKfNWyncFcC9pid1PTlvk28xohpBtkbTmWgtEHQktuf5X4ggqisemWY+Ql06hsrYCV+Tmx6eJA2FlhaoXozi37f2cvCeVdu224uEwJF07hs6s/BKhMRyKFZa6dtRX56nK7W459W3jIa+1nbOtpNbVfW3L/XuHGjrgVWPP1XAs4c+kSRF5dSMZuLzafhcjLscv5O7Q1m0JwWoEryluIVSeKa/Up8nblctTKp+uLy6bcrca+sB6uS3g8OfDl3ebP9nSR2HzTxIJZNNqtnO6yEwgFfHYLLbPo0oICC71yy6deaIa2fOLylWG7+uIQC0MXLqkJUL04LJ8XAskuVKu4ZfmwkJTPcUmNLgee4ZKa/1vczgpcWq4MWLjaRW1dyOfUow29xWvqT1yckuGdBdMUtCB0y6y5wVUsztEPXLiPFABN78MJjdx+1ab/zYJp/X1xHzlGfHwBhT5eaz+MdfFuQdO4DI3JpnGUS07/s3bperSZNxy1OdD0q/bzlSOnnXPH0STJmV9y/myPm9f+3PwuGE4I6SaXFrSEXCVSXt5pYs8C1bdOufE5EN7RroI6xOYbMh9gW14bL8a0BS0h5NuhaX6x242H757wMfPawTX105R/zCGETJbWl0IRcpWZF0ELzPYpceO0G58//PBDUCR2CdSB8818g/Ozud5ZgAWnu3yo6aZ0QgjJQc4rKUGb450lhFxdKGgJKTB/Nxdbgh2RM66zQo5RCMIuempRZilmQaiuhBBCCCGE5EBBS0hHCI3Vq0CoroQQQgghhORAQUtIRwiN1atAqK6EEEIIIYTkQEFLSEcIjdWrQKiuhBBCCCGE5EBBS0hHCI3Vq0CoroQQQgghhORAQUtIR5BjlJdCEUIIIYQQQkFLSGdw4xOCMCQWu4QUtaG6EkIIIYQQkgMFLSEdwY3PLnpmfVAHzjeEEEIIIeSyUNAS0hHc+AwJxC7C+YYQQgghhFyWLEG7fO+NOr23MvT8W2d3/xPbhUwNNz5D4rCLxOYbQgghhBBCckkK2l5/Re0+faPevfh3ydv9g1oCkuV7r9Xpb5+E7Wt1d7EftL0KpARtr/9QHYm2aCN8kW7bOF3m/fkvSv11qL6eDILhjly7q0LvyZk6+2On/OzGZ0gcdhF/vjF1Xrqltk9/Vvunm+rO0tWdO6bBnRc/q+f/eqK2H18fCptEO9/89Vx9+s9fho+i37ZFlru3tmb+v3+6pm7025ez119SD3Q9kUasLWbNOOs7S9rWY+HxmumDsDO2L7Qtx/xc0mYcjbs/y3nl7NfbQRtw/4+LZDgh5GqTFLS7+2/U0WolqiBYY4K2t3igxex8CVhbpkpUOt7+Vq/XpBnFwz0vXvHnH/SXhF6c3pzw4mrjZDdLqPp2vZ1HRuSG+LIzH32xd3tdfT1fD4bF6PVvq1efz9Xz1aoObnyGxOFgsKK2Do/V3rr99+XLl+r4+FBtrVTnbQcrW+rw2IaZ8MMttSLO467vHavDrfUyPthbH9TiHR/vqXXvDO/K1mGVpsjTxquXQeLPN6bepdDq3oJ+Hll4vBlcfE6inbHwHMeC8sYzuyB+sNavyvniVtC2DbG2mDWTqm+KSczrbephwylgR8G03YT7R4qmcTSp/tw0v/RWT9TZ5zN1n98bhHyTRAWt8TAmvLE+Rjy2sJ8W1lOqhbaY5JZXIXTfqN0pie8uC1pwX3+RfNTi6tWTyf36OaqgzQ2bJaMIWnx5f/xwUnvmxmdIHDpBKwUlBKoUrStbe5XYdPZ762Uaxl7Ed0LVpRGKAxuZx2B9rxS9IwnawhMw6QX9t0JU0E6gncclaFFm5zkuy/lsKWjbhnkVtJOqbxPjntfb1GPWoqzLzLugnVR/zplf6KUl5NslIWhXhoRgiJgXFBwJ75KzPSq20wJsSfZFZW/1dS3+sv7s0j99eqCW/mnDTdxiO/Tp04elne99DQlacPfpp7J8EI82zUqQl8884TvKVuImcSq3apvya9tQnLve9u/TwJbupvZbHvHXy97qjnr14UKLrDN133uvJvz2inp/pgXlhd0WrC70/89W1EYgv42TRzW7L1qEhsRorl1lHw4rvbgXj9SRLueXYuuySVN4cY/Oqi3NobydHfIxz4VILZ9p2/e3bZq9/qDcJj1EQuDCO2s8KN4XsxufIXHoxObh1kr1zAjKYY9qGQ7xKcSoEbRCrA4G62rvGF7fKr6MY8PrgrXyFIfzlMj5RoIta6EFkPvlH4spuV0Ri6cH3gKrt7Sk7jzTCy9hs63TXAj0RywQHxTb5IztizXzGR6GNnZuqx2Qcd22OxNH1CuUnr/9V8ZFmgv6s6vT9rNbtfqE2iS1+Iy186iMV9Cumbr1+tdNOYOiXL/jBy82y/axddZtEFnsp9piFv3FkVvfJnBEwW3NjPHqiVfGhnm9DTn1QJu4NvbJab+24+P6nWLLK+Lq92uf6/da2Jk+s9a+rUFu/2uqR21brknT2tqyCbuiTV06Ev+HqTbzRk47S1LjCIyrP/vkzC8YAx8/nzXuPOj1v1fvjgfq7+MF9e7HtC0hpBukz9AaAaqFlRZOR/ceJrcTN3loIbQQLgUVRDNEmi98AQTnW523Ea6FQF1e1cIVk2Qhok91mcw5Xy2S3Xld5PNWC1iXT66HNlZ+bLuOeXJzvagpOxMGQV6WV7cJnpn6VXFKO1EWUw/UW9TNkWo/37YNN3Gu8zPEVv2MHMTbRiHkHEYgesLNiE4hdBHvCM+0eJRiNNdOEhO0AO36RYtNIzh3rM3GzrpOb1eL3KrcJo3zet7A5C3Sjnld3+u4TtA62npo7dap+nZj4MZnSByGhGTIQyq3B0vvK8LslmMhiEOCVQpa/X+ZluQyghbCNbYAMospvYj0xcYNb5GFhdSCtyhDukMLP233wFvU9pb0M70I8xeTOXZ3dNlCi0GzkBd5Y8GJz7WFpc7jhl50y/Qctux6oYjFZlGGhbWqDUy7iDYxaeGZXsTG2jLVzqMwLkGbg/X86LaW76Ooc8zrnFqII+4s+su8EJvXJ4U/HnzGOT5MXmYcLJk0ILBgh+3OyMeJLz/NFLn9L7ceLj2I2Kr8KPfm0LbspraTNM0bbdsZNAnaSZElaCPfnT4UtIRcPZKCVrK8WAgtLapC4U2CNiYMY/EgyCBY/efAj2NtrWizYrcSeb5H1eGnPQtBG/Meg1qdEnZGwAfeSar9ALbmhH7BB00XuvT67lf9k+Qvob6Qs6LykToKxIH4dYIx186nWdD+MnSu1hegSENpMSttAAS1LNNEBW3xK7N/FsiNz5A4bBK0zts6tD34koI2dKY2l9R8E8P8+h/wKmIR9gAejlR/DCwEQwvTELl2KB8WgtXC2eZnFo5iEZgrfB1WfIa9qbZs4bqPW7SmmKagHaVebRfi0+gv80TuvD4OmkTZWMeHF0f2HRMmxg7CnKfSR847uf0v+wcu01+Gf+wIxW9qO0mqXUDbdgZzLWjRhz9fDO1EIIRcfbIFraOtMDVhKUEWCYMgC3luQXtBW0/feUGxxbj0jM5C0CbaTMaxdRoW5Y7QRV2p9rsMUQ+t2cpbbLstt9Xqz1LQJoSdFKO5dm3CYiI5JGhjaUjbzgnawPZj//xra0Eb8AC3IWe+8UktpuTizN8OaBak+nPIe2fEZrEdz9n5W5hz7WCDha9dEK6VZcLC0i1WUwI0Fibj+8zL4nPagjbWHjFSbTGr/jJORtly7JgnD+2kx4cVefY9mLBIXily+l+besRsxyFoo+0yQjsDClpCyDwSP0MLz58QfMBu1a2280pS4gyM4qGdlKB1yDLFyjEfHtq888yScQva1Fkr673EedRBbZuuL+RyPa+5dj7jErQz99BOYMuxLz7t57rHtq2gdXGkl9aUYy9P8Mr5Jhcsppo8tPb/8JRer2+ly1gIIu5CcY4ttWCN2ZmFoM7DLfrsv0t6YVpfHLb1jIy6MJWL91HY2R6o/778h/p7+/tguKSrHtpZ9pdZM84ztG1oatuxjg8vjuw7JiwydlLk9r/cesxC0IK27QzmWtBmbjn+aXPBzmsH14LhhJDu0SBotRATnkF3TtVPxNg3CNryDK2I31vE+df4GdpJClpcloSztqWdiVeJ1+VFHQ9nc72ztpLLCtoyLOMMbbD9CtvYluNxCdqm2zCtWPSEobt8yRNyRnTO7AxtpodWP8s6QyvqXNbXa4fKVuddPLfebG0bEM4m/BKXQqXO0Nb+vA5E6SW3HLtniCfPz7o0JiVom87Q2sVhfaHmxITvcUN6+7gkRdjirCO2C8uFYK4dgHhFGZG/XRiizPV8jfdOPxtOD8Kqnh5oWpiadhFtAgHVdIa2iV7/O/X7gT1n9ntkDpRMU9BaIaLbWGzpRfvdMBdjDZ87BLGF+Kz7y6yYxu31MZpE2TjHh5/XOARtbv/LrUdrQQtbl4frq4Ef+prmjbbtDGLjaNJkCdpid1PTlvk28xohpBtkbTmWgtEHQktuf5X4ggqisemWY+Ql06hsrYCV+Tmx6eJA2FlhaoXozi37f2cvCeVdu224uEwJF07hs6s/BKhMRyKFZa6dtRX56nK7W459W3jIa+1nbOtpNbVfW3L/XuHGjrgVWPP1XAs4c+kSRF5dSMZuLzafhcjLscv5O7Q1m0JwWoEryluIVSeKa/Up8nblctTKp+uLy6bcrca+sB6uS3g8OfDl3ebP9nSR2HyTwi2m5K2d9nbR+gJLhgNs/72xhoWgXviJhaNJTwsPLAjLraGh9DLtnC2EkBOXEDFBIaUXprX0sEXZW7xiQerCJaGtsLFbjs3nwGK3id7iNfUnLk7J8M6CaQpaELpl1tzgKtrQ1T+EbJNZ9pdZMK2/L+4DAeXaw8cXUOMYHzI/tD/iuzjl0QDzjoeFYxM5/c/apesRKqMVuFUcf/4YHuv18d1m3shp59xxNEly5pecP9vj5rU/N78LhhNCusmlBS0hV4mUl3ea2LNA9a1TbnwOhHe0q6AOsfkmhREKcyIKrjrYltfGizFtQUsI+XZoml/sduPhuyd8zLx2cE39NOUfcwghk6X1pVCEXGXmRdACs31K3DjtxucPP/wQFIldAnUYZb6hoJ0eOD+b650FWHC6y4eabkonhJAc5LySErQ53llCyNWFgpaQAvN3c7El2BE54zor5BiFIOyipxZllmIWhOoawt9GN62tboQQQgghZH6hoCWkI4TG6lUgVFdCCCGEEEJyoKAlpCOExupVIFRXQgghhBBCcqCgJYQkCc0RV4FQXQkhhBBCSLegoCWEJAnNEVeBUF0JIYQQQki3oKAlhCSRc8O3eBkVIYQQQgiZXyhoCSFJ3LwAQRgSi11CitpQXQkhhBBCSLegoCWEJHHzQhc9sz6oA+c5QgghhJCrAwUtISSJmxdCArGLcJ4jhBBCCLk6ZAna5Xtv1Om9laHn3zq7+5/YLuTK4+aFkDjsIrF5jhBCCCGEdI+koO31V9Tu0zfq3Yt/l7zdP6glIFm+91qd/vZJ2L5Wdxf7QdurQErQ9voP1ZFoizbCF+m2jdNl3p//otRfh+rrySAY7si1I5ej9+RMnf2xU35280JIHHYRf54zdV66pbZPf1b7p5vqztJ456w7L35Wz//1RG0/vh4Md+TazSOTaL+bv56rT//5y/BR9Me2yHbtra2Z/++frqkb/fbl7PWX1ANdT6Qxr+9qnPWdJW3rsfB4zfRB2BnbF9p2zGOZjIc242jc/VnOK2e/3g7agPt/XCTDCSHzRVLQ7u6/UUerlaiCYI0J2t7igRaz8yVgbZkqUel4+1u9XpNmFA/3vHjFn3/Qk7peTN6c8GJo42Q3S6hKu97tdfX1worcIOfrQ/HHicl/wnlMm17/tnr1+Vw9X63et5sXQuJwMFhRW4fHam/d/vvy5Ut1fHyotlaq87aDlS11eGzDTPjhlloR53HX947V4dZ6GR/srQ9q8Y6P99S6d4Z3ZeuwSlPkaePVyyDx5zlT71KQTWbhv/B4M0v85NrNG5NoPyw8x7GgvPHMLogfrPWrcr64FbRtw7y+q0nVN8Ukvifa1MOGU8COgmm7CfePFE3jaFL9uWl+6a2eqLPPZ+r+hNc+hJDxEBW0xsOY8Mb6GPHYwn5aWE+pFtpiUlpehdB9o3anJL67LGjBfT3xf9Qi59WTyf1aObKgFYLy6OwX9WXHvtNpiM2rKGjxJf/xw0ntmZsXQuLQCVopKCFQpWhd2dqrxKaz31sv0zD2Ir4Tqi6NUBzYyDwG63ul6B1J0BYeg0kt/K+8oJ1A+41L0KJNnee4LOezpaBtG+b1XU2qvk2M+3uiTT1mLcq6zLwL2kn155z5hV5aQrpDQtCuDAnBEDEvKDgSXh5ne1RspwXYkuyLyt7q61r8Zf3ZpX/69EAt/dOGm7jFdujTpw9LO9/7GhK04O7TT2X5IB5tmpUgL595wneUrcRN4lRu1Tbl17ahOHe97d+ngS3dTe23POKvjb3VHfXqw4UWO2fqvvdeTfjtFfX+TItN5zG90P8/W1Ebgfw2Th7V7L5ogRoStE12bQXtkS5f6b3VfD1/pI5uV+VDn/9S5qfDdNlNOu6ZTg/16fUH5fbnIbw8c9ult/OoTAN12NCfXZyvZzZfZ9tUD5Nei/fhgHfWeFq8L3A3L4TEoRObh1sr1TMjKIc9qmU4xKcQo0bQCrE6GKyrvWN4fav4Mo4NrwvWylMczlMi5zkJtrbFF8xL6s4zvfDSiym75U3/X9suBNpTbn2E3QO9WAst2nLs3BY756FY0J9dnO1nt2r539Dlc7YmPLLlEgvYB8U2PoCtmfiM9Eexc6TabxTGK2jXTFv1+tdNOUMLaLzjBy+qNrTvRLd3ZLGfWoi36S/jfh+59W0CRw/c1swYr554ZWz4nmhDTj2MGCva2Cen/fzt8U3j7fqdYssr4hbjzbzXws70mbX2bQ1y+19TPWrbck2a1taWTdgVberSkfg/TLWZh3LaWZIaR2Bc/dknZ37BGPj4+axx50Gv/716dzxQfx8vqHc/pm0JIZMhfYbWCFAtrLRwOrr3MLmduMlDC6GFcCmoICAg0nzhCyA43+q8jXAtBOryqhaumNQKEX2qy2TO+WqR7M7rIp+3WsC6fHI9tLHyY9t1zJOb60VN2ZkwCPKyvLpN8MzUr4pT2omymHqg3qJujlT7+bZtuInzlZ8heupn2iDyNjxRBYHpCzwjSIWwQrwjPNPCSwraHLs2grZMT5RxYwc2Vri6Z1asWlv3zAjIQsy6Z8Y2IJp9ctulHob8Hqn3O7aeGztVO7SpR5t8gd1iVd9uDNy8EBKHISEZ8pDK7cHS+4owu+VYCOKQYJWCVv9fpiW5jKDF1raoQNELqQVvUQZ7f+FnFmdCuCDeDTzTiz+Zdq6dw+alF3ZYHBYL5oW1Kn6Znijjwho8L/UtwMjngbfo7i3pZ3qR6C92c+wkqfYbhXEJ2hys52ezbFv7zL6TmNc5tRBH3Jz+Msn3MUti3xOTwgjbyHsCEGQIrwkvvF8tSkPtlxpvTkRvP14yaUBgwQ4/HiEfJ778NFPk9r/cerj0IGKr8qPcm0M/cjW1naRpHmrbziA1jiZJlqCNfCf6UNASMnuSglayvFgILS2qQuFNgjYmDGPxIMggWP3nwI9jba0AsWK3Enm+R9Xhpz0LQRvzHoNanRJ2RsAH3kmq/QC20oR+cQdNF7D0+u5X+JPkL5e+4LMe0LrwckBslUI10y4U5gStJJWe8YwK8eqwIlaLSng5A+EgR9CGSMWz9YvkN0I9JE3ldb9G+2eG3LwQEodNgtZ5W4e2B19S0IbO1OaSmufa4C8E7SKyLiAdUuzl2g0/j3iPE+mZBbYWuuXnwMI5RK7dJJmmoI21e4q2C/GQcOjS+2hL7vfEOGgSZXe0CAt5CWPxkuPNi1Mb2wgTYxFhzlPpI8dlbv/LrYftL8M/doTiN7WdJNUuoG07g7kWtOjDny+GdiIQQuaPbEHraCtMTVhKkEXCIMhCnlvQXtDW03deUGwxLj2jsxC0iTaTcWydhkW5I3RRV6r9LkPUQ3tbiy14FsVWWOtpFII2IahSW4kl0s4nKmiRntt6GyKQFzycX7CtWIva2DbdJoEIctpFEqsDaFOPtvmCiQjawPZj//xra0Eb8AC3IWee8/G3A5oFqf5c855kLtpGWdxhIRnzcJj0iu1/IYa8gvCiCHvUA9udpU0bu0kxbUEba98YqYV4Tn8pbef0fYyy5dgxTx5aK+4iP/hEwhrHm8hLilE7FsN5pcjpf23qEbMdh6CNtssI7QwoaAkh4yB+hhaePyH4gN2qW23nlaTEGRjFQzspQeuQZYqVYz48tHnnmSXjFrSps1FG/OGM686gJv58wZfrec21C4WFPbQoXzi9EE4MIh+cZTXnab3tu9YuLWhz20WSFLSZ9RglXzCJLce++LSf6x7btoLWxZFeWlOOvTzBK+e5HLBlDt4xbPesbaXzFoKpRVtt0Ztp5z+PLyRRvnB6TSDuQnHOLrWgzrVrYmd7oP778h/q7+3vg+GSrnpoc/tLiGm/j3EzzjO0bWhq21E8tNHx5sWpjW2EjTAWc/tfOw/tcDkmKWjBlfPQZm45/mlzwc5rB9eC4YSQydMgaLUQE55Bd07VT8TYNwja8gytiN9bxPnX+BnaSQpaXJaEs7alnYlXidflRR0PZ3O9s7aSywraMizjDG2w/ZynObLleFyCtun2SitAd9V7ea7TiMLhM5s5Z2Pb2EmSYhCXLOmyyHOlLk25VRdi9qsWsxCD1TN4Ruv1q55XYtcKYV3nIr027eJI1QHk1GOUfMFlLoVKnaGt/XkdiNJLbjl2zxBPnp91aYxf0GJxWF+oOTHhe9zM4mxCZ2iTAgfeO10WeW7TpSm3NiLffVziIu2W7DlAmX6uXRt6/e/U7wf2nNnvkTlVMk1Ba4WIfsdiSy/qe8Nc3DV87hDEFuJt+8us3se4mcZt+DGaRFlwfJj2ww8Pw+03bUGb2/9y69Fa0MLW5eH6qpg3HCPNQ4l2BrFxNGmyBG2xa6lpy3ybeY0QMhmythxLwegDoSW3v0p8QQXR2HTLMfKSaVS2VsDK/JzYdHEg7KwwtUJ055b9v7OXhPKu3TZcXKaEC6fw2dUfAlSmI5HCMtfO2op8dbndLce+LTzktfYztvW0mtqvLbl/X1DeygvMJUW4rAjPPK9i7PZi81mIyxw7K96qfB0h0YvLk4yoc3YmzSo/edMwwiAIrWit4vhic7iM9XGS2y4Qss6mRkCANtXD2uS/Dwm+5Nv82Z4uEpvnUshbPYG5bGkNC0G98PMWjrHbi83nmrhstsMCEp99QltXcekLFqKljUmzvig1i0ctjIbt6gvKXLs29BavqT9xcUqGdxZMU9CC0C2z5gZXsTh37ydE7d1m9pdZvo9xMq2/V+4DAeXaw8cXUBButfbDxUaeuGsabzI/tD/iuzh4/1Yc4h0PC8cmcvqftUvXI1RGK3CrOL6AHJ6L6vNGm3kop51zx9EkyZlfcv5sj5vX/tz8LhhOCJkOlxa0hJCrgz0zVN9i5eaFgfCOdhXUITbPkcmCbXltvBjTFrSEkG+HpvnFbjcevlPCx8xrB9fUT1P+MYcQUqf1pVCEkKuN2WYlbrp288IPP/wQFIldAnXgPDcbcH421zsLsOB0lw813bxOCCE5yHklJWhzvLOEkPmBgpYQkkTODRCEXfTUosxSzIJQXQkhhBBCSLegoCWEJAnNEVeBUF0JIYQQQki3oKAlhCQJzRFXgVBdCSGEEEJIt6CgJeSKERrT80io7IQQQgghhLSBgpaQK0ZoTM8jobITQgghhBDSBgpaQq4YcizPyyVOvJSJEEIIIYRMAgpaQq4YbhxDQIbE5SyRojZUdkIIIYQQQtpAQUvIFcON43n88zooE+cZQgghhBAyLihoCbliuHEcEpTzAOcZQgghhBAyLrIE7fK9N+r03srQ82+d3f1PbBcyd7hxHBKTYLC+p44Pt9TKmDy4bdOLzTOEEEIIIYS0JSloe/0Vtfv0jXr34t8lb/cPaglIlu+9Vqe/fRK2r9XdxX7Q9iqQErS9/kN1JNqijfBFum3jdJn3578o9deh+noyCIY7cu2+NXpPztTZHzvlZzeOQ2ISzKOg7S3dUtunP6v90011Z2k2c8adFz+r5/96orYfXw+Gz4Kcdrn/x4U6+/V2MIwQQggh5KqTFLS7+2/U0WolqiBYY4K2t3igxex8CVhbpkpUOt7+Vq/XpBnFwz0vXvHnH/RiWYulm/3JvteNk90soSrterfX1dcLK3JrXOyqLzuji16T7vl6MEySazdJev3b6tXnc/V8tXo/bhyHxOT63rF6+fJlyfHeehm2snVYPT8+VFsrVqDi+fHxnlovBOtgsKK2Do9N3FB6g5UtdSji+/jzjKlHKdzW1A2vr914ZoWm48FaX/XW1mrP9p8t1eKMysLjzZEFranDi1vBsFFJtUtps3qizj6fqfsTHqOEEEIIIfNIVNAaD2PCG+tjxGML+2lhPaVaaIvF3vIqhO4btTsl8d1lQQvu/3quPmrR9OrJ5LxAowhagF0EXy4eqSPxfjd2IHR31fvbo73fLgnam3g3H05qz9w4DolJEPKoGtEqnhmbQsQ6AXu4tRK3lZ9HEbT9JfUAwi0iCCFgQ6L1MgI0xNwJ2oZ2cdBLSwghhJBvlYSgXRkSgiFiXlBwJLxGzvao2E4LsCXZF5W91de1+Mv6s0v/9OmBWvqnDTdxi+3Qp08flna+9zUkaMHdp5/K8kE82jQrQV4+84TvKFuJm8Sp3Kptyq9tQ3Huetu/TwNbupvab3lEL05vdUe9+nChxdOZuu+9VxN+e0W9P9Ni03lMtaD8eraiNgL5bZw8qtl90QI1JGhz7EKCFhyd/aK+7NhniGPSEOKzfCaEb68/KLc1DyHi5tqV9lr4fpH2549qYru388g+Rz10O5a2qHNRhxDwzhoPuidk3DgOiUkwJEAH62rPE6BOxO6tS5EKgRuwHcOWY4AtvzFPa46gdZ5cfF54vGY8m8Z7e7qpHgREasjGF7S9pSV155l+Juy2dTkWRH/r9a+X25V9QkL0hk5P2my/WFM3EtusU+3iwLbzj5/PGndS9Prfq3fHA/X38YJ692PalhBCCCGkC6TP0BoBqoWVFk5H9x4mtxM3eWghtBAuBRXECESaL3wBBOdbnbcRroVAXV7VwlXHdyL6VJfJnPPVItmd10U+b7WAdfnkemhj5ce265gnN9eLmrIzYRDkZXl1m+CZqV8Vp7QTZTH1QL1F3Ryp9vNt23AT5zU/Q0RVZzYBRN6G5xGFqPQFnhGkQugi3hGeaeEqhWquXUjQhjy0MW/q+/NhT+44PbQQq7CRwt7URYt/KVZtPbTIRrmL7dKuHkde+Rx2q2l9uzFw4zgkJsGQoNWf5bZhiRO0wG0vltuUXfxxCFoI0ph3NNdDaz6/GBadN0J2wgai1Nho4VoTtPr5gic2Uc6QUM3x0Jb5ijQX1hAvvqU41S6OWF/woaAlhBBCyFUjKWgly4uF0NKiKhTeJGhjwjAWD4IMgtV/Dvw41taKNit2K5Hne1QdftqzELQx7zGo1SlhZwR84J2k2g9gi+Kn//wV5KO4YChEr++8tSdJj5Av+ELi0wHx64Rqrh2wtsPe0q8n9faelaANpQ/CbVN5lR2x+MB55fyzk24ch8QkCAlaeUY2hjtj67YeO8YlaFO0EbQhOwjTB8U5VLuNNywgs8RjRLg2CdpUvrH65WLG5OcL9epJuK8QQgghhFxVsgWto60wNWEpQRYJgyALeW5Be0FbTx/iAeIcW4xLz+gsBG2izWQcW6dhUe4IXdSVar/LEPXQmq2yxTZeBz5L0ZYQgHIrca4dCIlf581F3qWHN5LmJAVtSpj7YTHbqQjahjOvoNxyHLCdN0EbE6R3XtibglPC04+PLccPdDy5RXhffx7FQ2vCi63LIZrOyaagoCWEEELIt0r8DC08f0LwAbtVt9rOK0mJMzCKh3ZSgtYhyxQrx3x4aPPOM0vGLWhTZ2ghILFdFjcL17bWeoIvJfAu56EN20oxOAtBC2KCNLdtkoL2MluOPY8sthMP3WS8Z0Vq1qVQMu4Il0I1ERO0vkd1nB5aG2dTPVi7Xj8zO7KHtipDKPwy5G45/mlzQf335T/U3wfXguGEEEIIIV2jQdBqISY8g+6cqp+IsW8QtOUZWhG/t4jzr/EztJMUtLgsCWdtSzsTrxKvy4s6Hs7memdtJZcVtGVYxhnaYPsVtrEtx+MStE23HFsxVhdeG+5yI0/wTeMMLdjARUviuRGQooxl+bxyV7Y6bvHcep+1rS5PW7vyDK3Io3cbl0qFztC2FLSjXgpVCFT/PKz/J3icgDViVwpYczFUJXD99CYiaI0Y/NmIS/fMnD31BKLxsI7pDK0VvvW//7pgPLaJM7QoT2Fvvbv1C50gzCF65Rlal/elthxnXgr1+4E9P/t7ZE4jhBBCCOkaWVuOpWD0gdCS218lvqCCaGy65Rh5yTQqWytgZX5ObLo4EHZWmFohunPL/t/ZS0J5124bLi5TwoVT+OzqDwEq05FIYZlrZ21Fvrrc7pZj3xYe8lr7Gdt6Wk3t15bcv0MLAVneSIwzrOdanJlLjSAa60Itdnux+SzEYJOdFZRVnjW8m4SH0kP4TnVbsRTJQ7Ym73D/z7FDOcubi13eUuC6W46LNBBmBW4Vxy+fY5Q/2zNrYvNME04gVlt0K/HocFuGFyAcxc3EbW45Np8LcSnTAebyJiOktVANeFuH0xwWqRDitXpE7NqQ82d7eovX1J/HA/Xn5nfBcEIIIYSQLnJpQUsImR327GR9q6kbx4PCozpPoEyxeWYcOEEbCruq2O3Gw2epfbDdGFuNf2qwI4QQQgjpEq0vhSKEzBdmu6m4mdqN4x9++CEoKmcJyjTJeeZbFLQ53llCCCGEkKsKBS0hVww5liEg58FTizJIMQtCZb8MuNDJbeM1W3kvcSaVEEIIIYR0AwpaQq4YoTE9j4TKTgghhBBCSBsoaAm5YoTG9DwSKjshhBBCCCFtoKAlhBBCCCGEENJJKGgJIYQQQgghhHQSClpCCCGEEEIIIZ2EgpYQQgghhBBCSCehoCWEEEIIIYQQ0kkoaAkhhBBCCCGEdBIKWkIIIYQQQgghnYSClhBCCCGEEEJIJ6GgJYQQQgghhBDSSShoCSGEEEIIIYR0EgpaQgghhBBCCCGdhIKWEEIIIYQQQkgnoaAlhBBCCCGEENJJKGgJIYQQQgghhHQSClpCCCGEEEIIIZ2EgpYQQgghhBBCSCehoCWEEEIIIYQQ0kkoaAkhhBBCCCGEdBIKWkIIIYQQQgghnYSClhBCCCGEEEJIJ6GgJYQQQgghhBDSSShoCSGEEEIIIYR0EgpaQgghhBBCCCGdhIKWEEIIIYQQQkgnoaAlhBBCCCGEENJJKGgJIYQQQgghhHQSClpCCCGEEEIIIZ2EgpYQQgghhBBCSCf5pgTt8r036vTeSjDsW2Z3/xPbhRBCCCGEENI5piJod7YH6r8v/2F492M/aDNJev0Vtfv0jXr34t8lb/cPgrZg+d5rdfrbJ2H7Wt1dnH65p0VK0Pb6D9WRaIs2whfpto1DpgvGxpeLX5T669Dw9WQQtAvRe3Kmzv7YGXp+/48Ldfbr7aHnhBBCCCGEjJupeWh7P/7PzATt7v4bdbRaiSoI1pig7S0eaDE7XwLWlqkSlY63v9XrNWlG8XDPi1f8+QctsrT4utmfwQ8qt9fV1/P1YBioicqLXfX+dt/GKZ89Ukei3E3pjcrGyW62oO31b6tXn8/V89Xh9uytnqizz2fq/gzamhBCCCGEfFtceUFrPIwJb6yPEY8t7KeF9ZRqoS1EwvIqhO4btTsl8d1lQQvu/3quPmoR9urJdL2HOQI0ZvP+3Apc+WweBO1NtOWHk2AYoJeWEEIIIYRMg6Sg/Wnzf9Sfx9V24T8P/kftBMRTb/F79e5gobT7W9v9/uM1HXdB/V7Yl4J285q2tWn+rcPf/fjdUHo/6bjOpkpv2C4HeL98IRgi5gUFR54XCrZHxXZagC3Jvqjsrb6uxV/Wn136p08P1NI/bbiJW2yHPn36sLTzva8hQQvuPv1Ulg/i0aZZCfLymSd8R9lK3CRO5VZtU35tG4pz19v+fRrY0t3Ufssjev96qzvq1YcLLcbO1P2AdxFsnDyqvKPnj7SgrDyoX3aqOEdnu9am4Ku2PRLis9cfaEFabeet4QnSHEGbk15v51HxWZe7KN/XsxW1oZ+bOl3s6jqERWuuoIV31ni8E4IV25E/fj5r9Ij3+nru0HOMnQvStoQQQgghhPhEBS3OvUrB2et/V56FlQtPJ1T/3P5e/VQsXmH7uxakiO8LWohTJ4p/0s+kjXm2aYXxn5tVetWzEUWtEaBaWGnhdHTvYXI7cZOHFkIL4VJQQTRDpPnCF0BwvtV5G+FaCNTlVS1cdXwnok91mcw5Xy2S3Xld5PNWC1iXT66HNlZ+bLuOeXJzvagpOxMGQV6WV7cJnpn6VXFKO1EWUw/UW9TNkWo/37YNN3H+8zNEWf0MqBF1EICuHrcLEVlsBR6yk892IErr24PBtD20JlyL168nK/o9FOUvxLYRvBePyvpJsgWt2VIc3m7syLEBFLSEEEIIIeQyBAVtKVI9AVkK1YNrRmz6n6UtRGhI0NbE8CK8uIMyn3Jxq8Wxs3FYga3FcGAh3oblxUJoaVEVCm8StDFhGIsHQQbB6j8Hfhxra0WbFbuVyPM9qg4/7VkI2pj3GNTqlLAzAj7wTlLtB7C19dN//gryMXBhkaTXd97aE+NJtGdZI4JUCNqYnQmDYNRCt/YsV9A6r7DEE9KlbZOgFeFHZxC3VqjafMJlzxa0hfc1dUbWtO3nC/XqSdyGEEIIIYSQyxIUtM4jGsMJSydAczynWYK2+Bzy1ITiX4a2wtSEpQRZJAyCLOS5Be0FbT195wXFFuPSMzoLQZtoMxnH1mlYlDtCF3Wl2u8yhDy0MaFoBawQtDHx6fDSaBKgIGYzsodWhFPQEkIIIYSQq0rSQ9skHlMeVee9dWm0EbQhgex7fHMxnj8h+IDdqltt55WkxBkYxUM7KUHrkGWKlWM+PLR555kl4xa0qTO0+R7aQdRDG6JJgIKYzVwK2jFuOXY/nmGXRyicEEIIIYSQFGFBK8/AisuY3GVNcutvdb61foZ2p3jeRtCCKj2Zr40bErpNWEGrhZjwDLpzqkH7BkFbnqEV8XuLOP8aP0M7SUGLy5Jw1ra0M/Eq8bq8qOPhbK531lZyWUFbhmWcoQ22n/M0R7Ycj0vQ5txyXJ6NdfWInKHF1mKIRnmGFkL3SMcPbjmGiHSCGJdMIU1h11rQJtKbuKAd46VQ/ll7QgghhBBC2hC9FMqK0votx1h44qZj/8ZhK3Tr25SlnROzDohaJ2bdM+nlHectxxIpGH0gtOT2V4kvqCAam245Rl4yjcrWCliZnxObLg6EnRWmVoju3LL/d/aSUN6124aLy5Rw4RQ+u/pDgMp0JFJY5tpZW5GvLre75di3hYe81n7Gtp5WU/u1pc3foQ3fcjwsLHEJlBGSbquxtvlyEu5ftTQ9u/Jm4iIM+VjhWaUtb1dOpRdKC4LWfNaCt0y3CIOILe19PGEuGcef7UntyCCEEEIIISSHqKC9iqQELSEx/DO0BG2CM7LhLcV2u3H6jC0wxwgCF8oRQgghhBCSyzclaAkZBXhDcdFT6E/dfMuYbcWBm6RzvLOEEEIIIYSMAwpaQjz87b7YduzOqxJCCCGEEELmBwpaQgghhBBCCCGdhIKWEEIIIYQQQkgnoaAlhBBCCCGEENJJKGgJIYQQQgghhHQSClpCCCGEEEIIIZ2EgpYQQgghhBBCSCehoCWEEEIIIYQQ0kkoaAkhhBBCCCGEdBIKWkIIIYQQQgghnYSClhBCCCGEEEJIJ6GgJYQQQgghhBDSQf6X+n8BgeErThN3j6AAAAAASUVORK5CYII=;" vertex="1" parent="Ukw557SQEI1ZL_Sgn4xw-81">
          <mxGeometry x="215.00349358757637" y="728.804347826087" width="594.1758977982097" height="158.82688048311647" as="geometry" />
        </mxCell>
        <mxCell id="Ukw557SQEI1ZL_Sgn4xw-62" value="FormBuilder" style="swimlane;fontStyle=0;align=center;verticalAlign=top;childLayout=stackLayout;horizontal=1;startSize=55;horizontalStack=0;resizeParent=1;resizeParentMax=0;resizeLast=0;collapsible=0;marginBottom=0;html=1;whiteSpace=wrap;fillColor=#d5e8d4;strokeColor=#82b366;" vertex="1" parent="Ukw557SQEI1ZL_Sgn4xw-81">
          <mxGeometry x="443.57292582324703" y="464.67391304347825" width="147.85764194108233" height="219.3478260869565" as="geometry" />
        </mxCell>
        <mxCell id="Ukw557SQEI1ZL_Sgn4xw-63" value="attributes" style="text;html=1;strokeColor=none;fillColor=none;align=center;verticalAlign=middle;spacingLeft=4;spacingRight=4;overflow=hidden;rotatable=0;points=[[0,0.5],[1,0.5]];portConstraint=eastwest;whiteSpace=wrap;" vertex="1" parent="Ukw557SQEI1ZL_Sgn4xw-62">
          <mxGeometry y="55" width="147.85764194108233" height="19.56521739130435" as="geometry" />
        </mxCell>
        <mxCell id="Ukw557SQEI1ZL_Sgn4xw-64" value="form" style="text;html=1;strokeColor=none;fillColor=none;align=left;verticalAlign=middle;spacingLeft=4;spacingRight=4;overflow=hidden;rotatable=0;points=[[0,0.5],[1,0.5]];portConstraint=eastwest;whiteSpace=wrap;" vertex="1" parent="Ukw557SQEI1ZL_Sgn4xw-62">
          <mxGeometry y="74.56521739130434" width="147.85764194108233" height="19.56521739130435" as="geometry" />
        </mxCell>
        <mxCell id="Ukw557SQEI1ZL_Sgn4xw-66" value="" style="line;strokeWidth=1;fillColor=none;align=left;verticalAlign=middle;spacingTop=-1;spacingLeft=3;spacingRight=3;rotatable=0;labelPosition=right;points=[];portConstraint=eastwest;" vertex="1" parent="Ukw557SQEI1ZL_Sgn4xw-62">
          <mxGeometry y="94.13043478260869" width="147.85764194108233" height="7.826086956521739" as="geometry" />
        </mxCell>
        <mxCell id="Ukw557SQEI1ZL_Sgn4xw-67" value="operations" style="text;html=1;strokeColor=none;fillColor=none;align=center;verticalAlign=middle;spacingLeft=4;spacingRight=4;overflow=hidden;rotatable=0;points=[[0,0.5],[1,0.5]];portConstraint=eastwest;whiteSpace=wrap;" vertex="1" parent="Ukw557SQEI1ZL_Sgn4xw-62">
          <mxGeometry y="101.95652173913042" width="147.85764194108233" height="19.56521739130435" as="geometry" />
        </mxCell>
        <mxCell id="Ukw557SQEI1ZL_Sgn4xw-79" value="createForm" style="text;html=1;strokeColor=none;fillColor=none;align=left;verticalAlign=middle;spacingLeft=4;spacingRight=4;overflow=hidden;rotatable=0;points=[[0,0.5],[1,0.5]];portConstraint=eastwest;whiteSpace=wrap;" vertex="1" parent="Ukw557SQEI1ZL_Sgn4xw-62">
          <mxGeometry y="121.52173913043478" width="147.85764194108233" height="19.56521739130435" as="geometry" />
        </mxCell>
        <mxCell id="Ukw557SQEI1ZL_Sgn4xw-68" value="addButton" style="text;html=1;strokeColor=none;fillColor=none;align=left;verticalAlign=middle;spacingLeft=4;spacingRight=4;overflow=hidden;rotatable=0;points=[[0,0.5],[1,0.5]];portConstraint=eastwest;whiteSpace=wrap;" vertex="1" parent="Ukw557SQEI1ZL_Sgn4xw-62">
          <mxGeometry y="141.08695652173913" width="147.85764194108233" height="19.56521739130435" as="geometry" />
        </mxCell>
        <mxCell id="Ukw557SQEI1ZL_Sgn4xw-69" value="addInput" style="text;html=1;strokeColor=none;fillColor=none;align=left;verticalAlign=middle;spacingLeft=4;spacingRight=4;overflow=hidden;rotatable=0;points=[[0,0.5],[1,0.5]];portConstraint=eastwest;whiteSpace=wrap;" vertex="1" parent="Ukw557SQEI1ZL_Sgn4xw-62">
          <mxGeometry y="160.65217391304347" width="147.85764194108233" height="19.56521739130435" as="geometry" />
        </mxCell>
        <mxCell id="Ukw557SQEI1ZL_Sgn4xw-70" value="addTextarea" style="text;html=1;strokeColor=none;fillColor=none;align=left;verticalAlign=middle;spacingLeft=4;spacingRight=4;overflow=hidden;rotatable=0;points=[[0,0.5],[1,0.5]];portConstraint=eastwest;whiteSpace=wrap;" vertex="1" parent="Ukw557SQEI1ZL_Sgn4xw-62">
          <mxGeometry y="180.2173913043478" width="147.85764194108233" height="19.56521739130435" as="geometry" />
        </mxCell>
        <mxCell id="Ukw557SQEI1ZL_Sgn4xw-71" value="getHtml" style="text;html=1;strokeColor=none;fillColor=none;align=left;verticalAlign=middle;spacingLeft=4;spacingRight=4;overflow=hidden;rotatable=0;points=[[0,0.5],[1,0.5]];portConstraint=eastwest;whiteSpace=wrap;" vertex="1" parent="Ukw557SQEI1ZL_Sgn4xw-62">
          <mxGeometry y="199.78260869565216" width="147.85764194108233" height="19.56521739130435" as="geometry" />
        </mxCell>
        <mxCell id="Ukw557SQEI1ZL_Sgn4xw-80" style="edgeStyle=orthogonalEdgeStyle;rounded=0;orthogonalLoop=1;jettySize=auto;html=1;entryX=0;entryY=0.5;entryDx=0;entryDy=0;exitX=1.012;exitY=0.139;exitDx=0;exitDy=0;exitPerimeter=0;curved=1;" edge="1" parent="Ukw557SQEI1ZL_Sgn4xw-81" source="Ukw557SQEI1ZL_Sgn4xw-47" target="Ukw557SQEI1ZL_Sgn4xw-79">
          <mxGeometry relative="1" as="geometry" />
        </mxCell>
        <mxCell id="Ukw557SQEI1ZL_Sgn4xw-61" style="edgeStyle=orthogonalEdgeStyle;rounded=0;orthogonalLoop=1;jettySize=auto;html=1;entryX=0.497;entryY=1.04;entryDx=0;entryDy=0;entryPerimeter=0;" edge="1" parent="Ukw557SQEI1ZL_Sgn4xw-81" source="Ukw557SQEI1ZL_Sgn4xw-60" target="Ukw557SQEI1ZL_Sgn4xw-71">
          <mxGeometry relative="1" as="geometry">
            <mxPoint x="535.9839520364235" y="758.1521739130434" as="targetPoint" />
          </mxGeometry>
        </mxCell>
        <mxCell id="Ukw557SQEI1ZL_Sgn4xw-74" style="edgeStyle=orthogonalEdgeStyle;rounded=0;orthogonalLoop=1;jettySize=auto;html=1;entryX=1;entryY=0.5;entryDx=0;entryDy=0;curved=1;" edge="1" parent="Ukw557SQEI1ZL_Sgn4xw-81" source="Ukw557SQEI1ZL_Sgn4xw-68" target="Ukw557SQEI1ZL_Sgn4xw-57">
          <mxGeometry relative="1" as="geometry" />
        </mxCell>
        <mxCell id="Ukw557SQEI1ZL_Sgn4xw-39" style="edgeStyle=orthogonalEdgeStyle;rounded=0;orthogonalLoop=1;jettySize=auto;html=1;entryX=0.25;entryY=0;entryDx=0;entryDy=0;exitX=0.521;exitY=1;exitDx=0;exitDy=0;exitPerimeter=0;" edge="1" parent="Ukw557SQEI1ZL_Sgn4xw-81" source="Ukw557SQEI1ZL_Sgn4xw-2" target="Ukw557SQEI1ZL_Sgn4xw-62">
          <mxGeometry relative="1" as="geometry">
            <mxPoint x="485.1578876191765" y="542.9347826086957" as="targetPoint" />
          </mxGeometry>
        </mxCell>
        <mxCell id="Ukw557SQEI1ZL_Sgn4xw-75" style="edgeStyle=orthogonalEdgeStyle;rounded=0;orthogonalLoop=1;jettySize=auto;html=1;entryX=1;entryY=0.5;entryDx=0;entryDy=0;" edge="1" parent="Ukw557SQEI1ZL_Sgn4xw-81" source="Ukw557SQEI1ZL_Sgn4xw-69" target="Ukw557SQEI1ZL_Sgn4xw-57">
          <mxGeometry relative="1" as="geometry" />
        </mxCell>
        <mxCell id="Ukw557SQEI1ZL_Sgn4xw-40" style="edgeStyle=orthogonalEdgeStyle;rounded=0;orthogonalLoop=1;jettySize=auto;html=1;entryX=0.5;entryY=0;entryDx=0;entryDy=0;" edge="1" parent="Ukw557SQEI1ZL_Sgn4xw-81" source="Ukw557SQEI1ZL_Sgn4xw-3" target="Ukw557SQEI1ZL_Sgn4xw-62">
          <mxGeometry relative="1" as="geometry">
            <mxPoint x="517.5017467937882" y="542.9347826086957" as="targetPoint" />
          </mxGeometry>
        </mxCell>
        <mxCell id="Ukw557SQEI1ZL_Sgn4xw-76" style="edgeStyle=orthogonalEdgeStyle;rounded=0;orthogonalLoop=1;jettySize=auto;html=1;entryX=1;entryY=0.5;entryDx=0;entryDy=0;curved=1;" edge="1" parent="Ukw557SQEI1ZL_Sgn4xw-81" source="Ukw557SQEI1ZL_Sgn4xw-70" target="Ukw557SQEI1ZL_Sgn4xw-57">
          <mxGeometry relative="1" as="geometry" />
        </mxCell>
        <mxCell id="Ukw557SQEI1ZL_Sgn4xw-41" style="edgeStyle=orthogonalEdgeStyle;rounded=0;orthogonalLoop=1;jettySize=auto;html=1;entryX=0.75;entryY=0;entryDx=0;entryDy=0;exitX=0.514;exitY=0.967;exitDx=0;exitDy=0;exitPerimeter=0;" edge="1" parent="Ukw557SQEI1ZL_Sgn4xw-81" source="Ukw557SQEI1ZL_Sgn4xw-6" target="Ukw557SQEI1ZL_Sgn4xw-62">
          <mxGeometry relative="1" as="geometry">
            <mxPoint x="549.8456059684" y="542.9347826086957" as="targetPoint" />
          </mxGeometry>
        </mxCell>
        <mxCell id="Ukw557SQEI1ZL_Sgn4xw-78" style="edgeStyle=orthogonalEdgeStyle;rounded=0;orthogonalLoop=1;jettySize=auto;html=1;entryX=0;entryY=0.5;entryDx=0;entryDy=0;curved=1;" edge="1" parent="Ukw557SQEI1ZL_Sgn4xw-81" source="Ukw557SQEI1ZL_Sgn4xw-58" target="Ukw557SQEI1ZL_Sgn4xw-71">
          <mxGeometry relative="1" as="geometry" />
        </mxCell>
      </root>
    </mxGraphModel>
  </diagram>
</mxfile>
